<?xml version="1.0" encoding="UTF-8" standalone="no"?>
<!-- Created with Inkscape (http://www.inkscape.org/) -->

<svg
   xmlns:dc="http://purl.org/dc/elements/1.1/"
   xmlns:cc="http://creativecommons.org/ns#"
   xmlns:rdf="http://www.w3.org/1999/02/22-rdf-syntax-ns#"
   xmlns:svg="http://www.w3.org/2000/svg"
   xmlns="http://www.w3.org/2000/svg"
   xmlns:xlink="http://www.w3.org/1999/xlink"
   xmlns:sodipodi="http://sodipodi.sourceforge.net/DTD/sodipodi-0.dtd"
   xmlns:inkscape="http://www.inkscape.org/namespaces/inkscape"
   width="27.78125mm"
   height="26.458334mm"
   viewBox="0 0 27.78125 26.458334"
   version="1.1"
   id="svg_sensors"
   sodipodi:docname="drawing.svg"
   inkscape:version="0.92.1 r15371">
  <defs
     id="defs2" />
  <sodipodi:namedview
     id="base"
     pagecolor="#ffffff"
     bordercolor="#666666"
     borderopacity="1.0"
     inkscape:pageopacity="0.0"
     inkscape:pageshadow="2"
     inkscape:zoom="5.6"
     inkscape:cx="45.588616"
     inkscape:cy="48.829218"
     inkscape:document-units="mm"
     inkscape:current-layer="layer5"
     showgrid="false"
     inkscape:window-width="1274"
     inkscape:window-height="966"
     inkscape:window-x="0"
     inkscape:window-y="26"
     inkscape:window-maximized="1" />
  <metadata
     id="metadata5">
    <rdf:RDF>
      <cc:Work
         rdf:about="">
        <dc:format>image/svg+xml</dc:format>
        <dc:type
           rdf:resource="http://purl.org/dc/dcmitype/StillImage" />
        <dc:title></dc:title>
      </cc:Work>
    </rdf:RDF>
  </metadata>
    <path
       style="display:inline;fill:none;stroke:#000000;stroke-width:0.1px;stroke-linecap:butt;stroke-linejoin:miter;stroke-opacity:1"
       d="m 11.541032,16.23526 0.210475,0.50113 c 0,0 -0.526187,0.16705 -2.5256971,1.80407 -1.9995102,1.63703 -2.2099848,1.97112 -2.2450639,2.40543 -0.03508,0.43431 1.7539561,2.50565 1.7539561,2.50565 l 3.2623589,0.93544 c 0,0 0.07016,0.0668 0.841899,0.50113 0.771741,0.43432 1.262848,0.66818 1.262848,0.66818 0,0 -0.105238,0.16704 -1.122532,0.33409 C 11.961981,26.05742 8.5593066,25.82358 4.8409192,23.05064 1.122532,20.27772 0.38587039,16.16845 0.28063299,14.33097 0.17539562,12.49349 0.28063299,9.52012 2.3503014,6.7806 4.4199699,4.04109 5.8322145,3.32167 6.735192,3.90746 6.8802733,4.00156 5.4723436,5.64471 5.4723436,5.64471 c 0,0 0.070158,0.90203 0.5963451,1.83748 0.5261869,0.93544 0.7015824,0.7684 1.1926901,1.60361 0.4911078,0.83522 0.7366619,1.36976 0.7366619,1.36976 0,0 -0.1356926,2.14452 0.4560283,3.24064 0.7980503,1.47834 2.104748,2.18827 2.104748,2.18827 z"
       id="path_green"
       inkscape:connector-curvature="0"
       sodipodi:nodetypes="cccsccccccscsccccscc" />
    <path
       style="fill:none;stroke:#000000;stroke-width:0.1px;stroke-linecap:butt;stroke-linejoin:miter;stroke-opacity:1"
       d="m 8.9977956,7.9833271 c 0,0 0.070158,-0.1837479 -0.017538,-0.4343131 C 8.8925583,7.2984489 7.9629615,6.145849 7.542012,4.4587101 7.1210624,2.7715712 7.3490767,2.1033975 7.3490767,2.1033975 c 0,0 2.2099848,-1.4198693 5.0513943,-1.68713881 2.841409,-0.26726954 5.823135,0.25056517 8.155897,1.65373011 2.332762,1.4031651 3.455293,2.7896257 4.191955,4.3431299 0.736662,1.5535042 0.841899,2.4054257 0.841899,2.4054257 0,0 0.05261,0.100226 -0.0877,0.2171565 -0.140317,0.1169305 -1.069913,0.1837478 -1.069913,0.1837478 0,0 -0.07016,-0.1169305 -0.456029,-0.2672696 -0.38587,-0.1503392 -3.420214,-0.7182869 -3.946402,-0.7182869 -0.526186,0 -0.719122,0.016703 -1.140071,-0.1169305 C 18.46916,7.9833271 18.43408,7.8162837 18.188526,7.4989012 17.942972,7.1815187 17.451865,6.713797 16.960757,6.37971 16.469649,6.045623 15.434815,5.61131 14.399981,5.5277884 13.365147,5.4442666 12.505708,5.5110853 11.400715,6.145849 10.120328,6.9476578 9.3485869,8.0668489 9.3485869,8.0668489 Z"
       id="path_red"
       inkscape:connector-curvature="0"
       sodipodi:nodetypes="ccscsssccccsssssccc" />
    <path
       style="fill:none;stroke:#000000;stroke-width:0.1px;stroke-linecap:butt;stroke-linejoin:miter;stroke-opacity:1"
       d="m 20.012641,10.037962 -0.105237,0.451017 c 0,0 0.508647,0.935443 0.157856,2.53906 -0.350792,1.603618 -0.964676,2.488948 -2.03459,3.207235 -1.069913,0.718287 -3.262358,0.952147 -3.262358,0.952147 l -4.7883009,3.674956 c 0,0 -0.5261869,0.400905 -0.4911078,0.818513 0.03508,0.417609 0.4560287,0.785104 0.4560287,0.785104 0,0 1.490863,1.586884 2.052129,1.920986 0.561266,0.334101 1.841653,1.152614 2.964186,1.353066 1.122532,0.200452 2.017049,0.100226 3.367596,-0.26727 1.350546,-0.367495 4.174416,-1.520095 6.244084,-3.908816 2.069668,-2.388722 2.736172,-5.078121 2.84141,-7.116051 0.105237,-2.03793 -0.456029,-4.393243 -1.403166,-6.0636776 C 25.064034,6.713797 25.046495,7.0645882 25.046495,7.0645882 l 0.543727,1.7539562 c 0,0 0.07016,0.200452 -0.368332,0.3173825 -0.438488,0.1169305 -0.36833,0.083522 -0.36833,0.083522 l 0.333252,2.5724691 c 0,0 -0.666503,-0.317383 -2.157367,-0.801809 -1.490862,-0.484426 -2.209984,-0.3842 -2.666013,-0.634765 -0.456028,-0.250565 -0.350791,-0.317382 -0.350791,-0.317382 z"
       id="path_yellow"
       inkscape:connector-curvature="0" />
    <ellipse
       id="path_blue"
       cx="14.066729"
       cy="11.215618"
       rx="5.1390915"
       ry="4.7690907"
       style="fill:none;stroke:#000000;stroke-width:0.1;stroke-opacity:1" />
</svg>
