<?xml version="1.0" encoding="UTF-8" standalone="no"?>
<!-- Generator: Adobe Illustrator 14.0.0, SVG Export Plug-In . SVG Version: 6.00 Build 43363)  -->

<svg
   xmlns:dc="http://purl.org/dc/elements/1.1/"
   xmlns:cc="http://creativecommons.org/ns#"
   xmlns:rdf="http://www.w3.org/1999/02/22-rdf-syntax-ns#"
   xmlns:svg="http://www.w3.org/2000/svg"
   xmlns="http://www.w3.org/2000/svg"
   xmlns:sodipodi="http://sodipodi.sourceforge.net/DTD/sodipodi-0.dtd"
   xmlns:inkscape="http://www.inkscape.org/namespaces/inkscape"
   version="1.1"
   id="chrome_logo"
   x="0px"
   y="0px"
   width="100"
   height="100"
   viewBox="0 0 100 100"
   enable-background="new 0 0 256 256"
   xml:space="preserve"
   sodipodi:docname="logo.svg"
   inkscape:version="0.92.1 r15371"><metadata
     id="metadata1201"><rdf:RDF><cc:Work
         rdf:about=""><dc:format>image/svg+xml</dc:format><dc:type
           rdf:resource="http://purl.org/dc/dcmitype/StillImage" /><dc:title></dc:title></cc:Work></rdf:RDF></metadata><defs
     id="defs1199"><linearGradient
       gradientTransform="matrix(0.40219123,0,0,-0.40769815,-104.67841,-38.878127)"
       y2="-261.37109"
       x2="427.23499"
       y1="-144.0381"
       x1="324.56931"
       gradientUnits="userSpaceOnUse"
       id="SVGID_1_"><stop
         id="stop965"
         style="stop-color:#DED9D9"
         offset="0" /><stop
         id="stop967"
         style="stop-color:#6A6363"
         offset="1" /></linearGradient><radialGradient
       gradientUnits="userSpaceOnUse"
       gradientTransform="matrix(0.40219123,0,0,-0.40769815,-104.4447,-38.878127)"
       r="175.0517"
       cy="-188.47951"
       cx="351.82419"
       id="SVGID_2_"><stop
         id="stop982"
         style="stop-color:#8DDB92"
         offset="0.0765" /><stop
         id="stop984"
         style="stop-color:#77CE7C"
         offset="0.1633" /><stop
         id="stop986"
         style="stop-color:#3EAB45"
         offset="0.3431" /><stop
         id="stop988"
         style="stop-color:#078A0F"
         offset="0.5021" /><stop
         id="stop990"
         style="stop-color:#108C18"
         offset="0.581" /><stop
         id="stop992"
         style="stop-color:#28922F"
         offset="0.7085" /><stop
         id="stop994"
         style="stop-color:#299230"
         offset="0.7148" /></radialGradient><radialGradient
       gradientUnits="userSpaceOnUse"
       gradientTransform="matrix(0.40219123,0,0,-0.40769815,-104.67841,-38.878127)"
       r="116.2404"
       cy="-214.623"
       cx="386.72559"
       id="SVGID_3_"><stop
         id="stop1005"
         style="stop-color:#F60000"
         offset="0.6157" /><stop
         id="stop1007"
         style="stop-color:#E70505"
         offset="0.7247" /><stop
         id="stop1009"
         style="stop-color:#C41212"
         offset="0.9171" /><stop
         id="stop1011"
         style="stop-color:#DD7878"
         offset="1" /></radialGradient><radialGradient
       gradientUnits="userSpaceOnUse"
       gradientTransform="matrix(0.40219123,0,0,-0.40769815,-104.67841,-38.878127)"
       r="52.106899"
       cy="-189.31149"
       cx="383.82419"
       id="SVGID_4_"><stop
         id="stop1016"
         style="stop-color:#B1DDF4"
         offset="0" /><stop
         id="stop1018"
         style="stop-color:#A9D7F3"
         offset="0.0742" /><stop
         id="stop1020"
         style="stop-color:#93C7F1"
         offset="0.1904" /><stop
         id="stop1022"
         style="stop-color:#6EADEE"
         offset="0.3332" /><stop
         id="stop1024"
         style="stop-color:#5B9FEC"
         offset="0.4" /><stop
         id="stop1026"
         style="stop-color:#0B85D1"
         offset="0.5273" /><stop
         id="stop1028"
         style="stop-color:#1375B3"
         offset="0.6182" /><stop
         id="stop1030"
         style="stop-color:#166FA8"
         offset="0.6537" /><stop
         id="stop1032"
         style="stop-color:#1E608B"
         offset="0.716" /><stop
         id="stop1034"
         style="stop-color:#2B475C"
         offset="0.7971" /><stop
         id="stop1036"
         style="stop-color:#33383F"
         offset="0.8424" /><stop
         id="stop1038"
         style="stop-color:#363233"
         offset="1" /></radialGradient><linearGradient
       gradientTransform="matrix(0.40219123,0,0,-0.40769815,-104.4447,-38.878127)"
       y2="-301.85059"
       x2="311.81119"
       y1="-168.96831"
       x1="287.08109"
       gradientUnits="userSpaceOnUse"
       id="SVGID_5_"><stop
         id="stop1043"
         style="stop-color:#FFFFFF"
         offset="0" /><stop
         id="stop1045"
         style="stop-color:#FFFFFF;stop-opacity:0.53"
         offset="1" /></linearGradient><linearGradient
       gradientTransform="matrix(0.40219123,0,0,-0.40769815,-104.4447,-38.878127)"
       y2="-194.5968"
       x2="321.5654"
       y1="-153.9297"
       x1="303.5654"
       gradientUnits="userSpaceOnUse"
       id="SVGID_6_"><stop
         id="stop1050"
         style="stop-color:#FFFFFF"
         offset="0" /><stop
         id="stop1052"
         style="stop-color:#FFFFFF;stop-opacity:0.53"
         offset="0.517" /></linearGradient><linearGradient
       gradientTransform="matrix(0.40219123,0,0,-0.40769815,-104.4447,-38.878127)"
       y2="-263.64569"
       x2="329.18939"
       y1="-367.64551"
       x1="329.18951"
       gradientUnits="userSpaceOnUse"
       id="SVGID_7_"><stop
         id="stop1057"
         style="stop-color:#FFFFFF"
         offset="0" /><stop
         id="stop1059"
         style="stop-color:#FFFFFF;stop-opacity:0.53"
         offset="1" /></linearGradient><linearGradient
       gradientTransform="matrix(0.40219123,0,0,-0.40769815,-104.67841,-38.878127)"
       y2="-153.5437"
       x2="436.26791"
       y1="-116.2905"
       x1="365.08691"
       gradientUnits="userSpaceOnUse"
       id="SVGID_8_"><stop
         id="stop1068"
         style="stop-color:#FFFFFF;stop-opacity:0.7"
         offset="0" /><stop
         id="stop1070"
         style="stop-color:#FFFFFF;stop-opacity:0"
         offset="1" /></linearGradient><linearGradient
       gradientTransform="matrix(0.40219123,0,0,-0.40769815,-104.4447,-38.878127)"
       y2="-194.75211"
       x2="299.7944"
       y1="-183.9019"
       x1="279.0625"
       gradientUnits="userSpaceOnUse"
       id="SVGID_9_"><stop
         id="stop1075"
         style="stop-color:#FFFFFF;stop-opacity:0.7"
         offset="0" /><stop
         id="stop1077"
         style="stop-color:#FFFFFF;stop-opacity:0"
         offset="1" /></linearGradient><linearGradient
       gradientTransform="matrix(0.40219123,0,0,-0.40769815,-104.67841,-38.878127)"
       y2="-217.6514"
       x2="356.90781"
       y1="-164.50101"
       x1="357.2529"
       gradientUnits="userSpaceOnUse"
       id="SVGID_10_"><stop
         id="stop1082"
         style="stop-color:#FFFFFF;stop-opacity:0.7"
         offset="0" /><stop
         id="stop1084"
         style="stop-color:#FFFFFF;stop-opacity:0"
         offset="1" /></linearGradient><linearGradient
       gradientTransform="matrix(0.40219123,0,0,-0.40769815,-104.67841,-38.878127)"
       y2="-168.7585"
       x2="381.99631"
       y1="-174.2256"
       x1="360.1279"
       gradientUnits="userSpaceOnUse"
       id="SVGID_11_"><stop
         id="stop1089"
         style="stop-color:#FFFFFF;stop-opacity:0.7"
         offset="0" /><stop
         id="stop1091"
         style="stop-color:#FFFFFF;stop-opacity:0"
         offset="1" /></linearGradient><radialGradient
       gradientUnits="userSpaceOnUse"
       gradientTransform="matrix(0.40219123,0,0,-0.40769815,-104.67841,-38.878127)"
       r="125.9904"
       cy="-208.9785"
       cx="384.82709"
       id="SVGID_12_"><stop
         id="stop1098"
         style="stop-color:#FFE650"
         offset="0.182" /><stop
         id="stop1100"
         style="stop-color:#FFDB00"
         offset="0.703" /><stop
         id="stop1102"
         style="stop-color:#D5B319"
         offset="1" /></radialGradient><linearGradient
       gradientTransform="matrix(0.40219123,0,0,-0.40769815,-104.67841,-38.878127)"
       y2="-263.64551"
       x2="428.91989"
       y1="-367.64499"
       x1="428.91989"
       gradientUnits="userSpaceOnUse"
       id="SVGID_13_"><stop
         id="stop1115"
         style="stop-color:#FFFFFF"
         offset="0" /><stop
         id="stop1117"
         style="stop-color:#FFFFFF;stop-opacity:0.53"
         offset="1" /></linearGradient><linearGradient
       gradientTransform="matrix(0.40219123,0,0,-0.40769815,-104.67841,-38.878127)"
       y2="-167.1665"
       x2="410.49091"
       y1="-167.76759"
       x1="341.9707"
       gradientUnits="userSpaceOnUse"
       id="SVGID_14_"><stop
         id="stop1122"
         style="stop-color:#29506B"
         offset="0" /><stop
         id="stop1124"
         style="stop-color:#304D68"
         offset="0.0677" /><stop
         id="stop1126"
         style="stop-color:#424560"
         offset="0.1639" /><stop
         id="stop1128"
         style="stop-color:#613854"
         offset="0.2766" /><stop
         id="stop1130"
         style="stop-color:#673551"
         offset="0.297" /><stop
         id="stop1132"
         style="stop-color:#4D7EBE"
         offset="0.5515" /><stop
         id="stop1134"
         style="stop-color:#633753"
         offset="0.7455" /><stop
         id="stop1136"
         style="stop-color:#29506B"
         offset="1" /></linearGradient><linearGradient
       gradientTransform="matrix(0.40219123,0,0,-0.40769815,-104.67841,-38.878127)"
       y2="-172.39461"
       x2="402.32071"
       y1="-229.39549"
       x1="415.9873"
       gradientUnits="userSpaceOnUse"
       id="SVGID_15_"><stop
         id="stop1143"
         style="stop-color:#343539"
         offset="0" /><stop
         id="stop1145"
         style="stop-color:#29506B"
         offset="0.3212" /><stop
         id="stop1147"
         style="stop-color:#C7DD85"
         offset="1" /></linearGradient><linearGradient
       gradientTransform="matrix(0.40219123,0,0,-0.40769815,-104.67841,-38.878127)"
       y2="-212.6716"
       x2="363.61719"
       y1="-235.29491"
       x1="363.08499"
       gradientUnits="userSpaceOnUse"
       id="SVGID_16_"><stop
         id="stop1152"
         style="stop-color:#343539"
         offset="0" /><stop
         id="stop1154"
         style="stop-color:#29506B"
         offset="0.3212" /><stop
         id="stop1156"
         style="stop-color:#496D4E"
         offset="1" /></linearGradient><linearGradient
       gradientTransform="matrix(0.40219123,0,0,-0.40769815,-104.67841,-38.878127)"
       y2="-223.5401"
       x2="499.52979"
       y1="-215.0396"
       x1="492.69629"
       gradientUnits="userSpaceOnUse"
       id="SVGID_17_"><stop
         id="stop1161"
         style="stop-color:#F4DD80"
         offset="0" /><stop
         id="stop1163"
         style="stop-color:#F4DD80;stop-opacity:0.3"
         offset="1" /></linearGradient><linearGradient
       gradientTransform="matrix(0.40219123,0,0,-0.40769815,-104.67841,-38.878127)"
       y2="-274.9928"
       x2="467.19501"
       y1="-206.5625"
       x1="491.7793"
       gradientUnits="userSpaceOnUse"
       id="SVGID_18_"><stop
         id="stop1168"
         style="stop-color:#F4DD80"
         offset="0" /><stop
         id="stop1170"
         style="stop-color:#F4DD80;stop-opacity:0.3"
         offset="1" /></linearGradient><linearGradient
       gradientTransform="matrix(0.40219123,0,0,-0.40769815,-104.67841,-38.878127)"
       y2="-309.92001"
       x2="445.4176"
       y1="-293.00241"
       x1="440.0918"
       gradientUnits="userSpaceOnUse"
       id="SVGID_19_"><stop
         id="stop1177"
         style="stop-color:#F4DD80"
         offset="0" /><stop
         id="stop1179"
         style="stop-color:#F4DD80;stop-opacity:0.3"
         offset="1" /></linearGradient><linearGradient
       gradientTransform="matrix(0.40219123,0,0,-0.40769815,-104.67841,-38.878127)"
       y2="-323.94119"
       x2="426.1514"
       y1="-303.73389"
       x1="414.5322"
       gradientUnits="userSpaceOnUse"
       id="SVGID_20_"><stop
         id="stop1184"
         style="stop-color:#F4DD80"
         offset="0" /><stop
         id="stop1186"
         style="stop-color:#F4DD80;stop-opacity:0.3"
         offset="1" /></linearGradient></defs><sodipodi:namedview
     pagecolor="#ffffff"
     bordercolor="#666666"
     borderopacity="1"
     objecttolerance="10"
     gridtolerance="10"
     guidetolerance="10"
     inkscape:pageopacity="0"
     inkscape:pageshadow="2"
     inkscape:window-width="1274"
     inkscape:window-height="966"
     id="namedview1197"
     showgrid="false"
     inkscape:zoom="7.39"
     inkscape:cx="49.792031"
     inkscape:cy="50"
     inkscape:window-x="0"
     inkscape:window-y="26"
     inkscape:window-maximized="1"
     inkscape:current-layer="group_blue"
     showguides="false"
     inkscape:pagecheckerboard="true"
     inkscape:showpageshadow="true"
     borderlayer="false"
     showborder="true" /><g
     id="background"
     inkscape:label="background"
     style="display:inline"><ellipse
       cx="49.793182"
       cy="49.29068"
       id="circle963"
       style="display:inline;fill:#4e4a4a;stroke-width:0.40493533"
       rx="43.838844"
       ry="44.439098" /><path
       d="m 25.32709,16.492586 c 0,0 -3.284696,2.004645 -2.128396,6.387409 1.156299,4.382754 3.267805,6.828937 4.926842,8.918393 1.659036,2.089456 3.334973,5.11335 3.066713,7.185682 -0.268268,2.072331 -0.955207,10.363271 4.323551,15.756307 5.27876,5.392619 9.200122,5.545513 9.200122,5.545513 l -1.307118,0.968281 -16.327759,13.558411 4.613943,6.844032 11.194188,9.716259 -7.976664,-1.494619 -0.569899,2.140414 11.630156,0.169603 -4.82629,-7.950121 -8.244923,-7.677771 c 0,0 -1.441456,-1.546399 1.441057,-3.686814 2.882504,-2.140414 16.959195,-13.063867 16.959195,-13.063867 L 66.920097,36.334026 c 0,0 1.256847,0.05098 3.619722,0.203852 2.362875,0.152884 20.729737,8.45974 20.729737,8.45974 0,0 -0.312899,-6.269991 -0.620178,-9.275137 -0.127085,-1.248372 0.393749,-1.100784 1.139816,0.679637 0.745659,1.780007 0.30164,4.892374 0.30164,4.892374 l -0.502739,-7.066631 -2.781954,-3.805052 -0.703838,3.261589 c 0,0 0.553018,3.312547 0.703838,4.535638 0.15082,1.223101 -0.402189,1.630795 -2.161775,0.815398 -1.759587,-0.815398 -7.591365,-2.75196 -11.462457,-3.26158 C 71.310817,35.264225 65.3785,35.009415 65.3785,35.009415 l -30.164339,0.407703 -1.608766,1.189258 c 0,0 0.37685,-1.401671 -1.231917,-4.119382 C 30.764711,29.769274 25.32709,16.492586 25.32709,16.492586 Z"
       id="path970"
       inkscape:connector-curvature="0"
       style="display:inline;fill:url(#SVGID_1_);stroke-width:0.40493533" /></g><g
     id="group_green"
     inkscape:label="group_green"><path
       style="display:inline;fill:#005a2b;stroke-width:0.40493533"
       inkscape:connector-curvature="0"
       id="path974"
       d="m 38.497674,92.018668 c 0,0 4.625201,0.407694 6.535607,0.203842 1.910406,-0.203842 9.484871,2.24234 9.484871,2.24234 0,0 -1.106426,1.687058 -3.485792,2.082933 C 48.652595,96.945291 36.319,93.47986 36.319,93.47986 Z" /><path
       style="display:inline;fill:#00663f;stroke-width:0.40493533"
       inkscape:connector-curvature="0"
       id="path976"
       d="m 44.463782,61.747082 c 0,0 -14.776108,10.765669 -16.758107,14.609454 -1.981998,3.844182 3.418225,8.833998 6.870638,11.75557 3.452402,2.921562 8.513172,7.69448 18.014942,7.898332 0,0 -6.284237,1.987531 -15.735728,-1.681753 C 27.404032,90.659402 16.846511,70.27449 16.846511,70.27449 Z" /><path
       style="display:inline;fill:#007a3f;stroke-width:0.40493533"
       inkscape:connector-curvature="0"
       id="path972"
       d="m 28.597735,34.231533 c 0,0 1.835201,3.299907 1.646567,5.898983 -0.175751,2.420911 -0.326979,12.714882 9.32601,18.575537 2.507267,1.522346 4.665018,2.102097 4.665018,2.102097 l 0.228452,0.938932 -5.622239,0.450099 -14.152303,-14.243751 0.150822,-11.517478 2.06123,-2.24234 1.106027,-0.25481 z" /><polygon
       style="display:inline;fill:#262626"
       id="polygon978"
       points="53.076,39.979 61.576,36.854 65.258,38.479 54.201,46.979 "
       transform="matrix(0.40219123,0,0,0.40769815,-1.4837556,-2.185293)" /><path
       style="fill:url(#SVGID_2_);stroke-width:0.40493533"
       inkscape:connector-curvature="0"
       id="path997"
       d="M 47.664415,96.112363 C 39.570312,95.246008 32.381146,88.315136 29.56581,85.308357 26.750471,82.301587 23.030202,79.090966 27.705675,74.402434 32.381146,69.713912 44.463782,61.747082 44.463782,61.747082 v 0 C 35.529099,59.52838 28.911846,51.239063 28.911846,41.497938 c 0,-1.701737 0.288773,-3.172709 0.4404,-4.794536 0.09613,-1.03188 -0.791915,-3.172294 -3.55698,-6.586767 -2.765064,-3.414473 -5.339491,-7.764611 -5.85711,-11.848933 -0.578351,-4.561325 2.522141,-5.988268 2.522141,-5.988268 -2.630733,0.101917 -7.222551,4.688523 -7.222551,4.688523 C 1.6637935,29.912378 -3.1291192,51.486538 6.2556106,70.240656 15.639535,88.994764 32.934165,95.177916 41.179078,96.673357 c 8.244923,1.49462 11.412177,-0.663325 11.412177,-0.663325 -1.508615,0.43338 -4.92684,0.102331 -4.92684,0.102331 z" /><path
       style="display:inline;fill:#007a3f;stroke-width:0.40493533"
       inkscape:connector-curvature="0"
       id="path980"
       d="m 24.840062,12.449443 c 0,0 -2.379765,-1.002125 -4.021912,0.781554 -1.642147,1.783679 -2.429638,8.96936 4.742639,16.511778 0,0 -5.061174,-6.930051 -4.926842,-12.434792 0.13393,-5.503929 4.356937,-3.703126 4.356937,-3.703126 z" /><path
       style="opacity:0.6;fill:url(#SVGID_9_);stroke-width:0.40493533"
       inkscape:connector-curvature="0"
       id="path1080"
       d="M 20.617457,13.33618 C 20.610657,13.138861 20.348793,13.2481 20.348793,13.2481 -6.4471974,34.295519 4.2860803,63.878915 4.2860803,63.878915 -2.6263802,29.708507 20.436471,13.610956 20.436471,13.610956 c 0,0 0.187019,-0.09006 0.180986,-0.274786 z"
       enable-background="new    " /><path
       style="display:inline;opacity:0.3;fill:url(#SVGID_7_);stroke-width:0.40493533"
       inkscape:connector-curvature="0"
       id="path1062"
       d="m 3.3135822,62.829108 c 0.7516951,2.501228 1.7249973,4.980036 2.9416259,7.411954 9.3839259,18.754118 26.6785489,24.93726 34.9234719,26.432701 8.244923,1.49462 11.412176,-0.663325 11.412176,-0.663325 -1.508216,0.43338 -4.926839,0.101925 -4.926839,0.101925 -6.585887,-0.764439 -13.389752,-5.860664 -16.205096,-8.867434 -0.0029,-0.0028 1.910415,1.681753 0,0 C 18.446831,86.319449 7.7376851,68.933169 3.3135822,62.829108 Z"
       enable-background="new    " /><path
       style="opacity:0.5;fill:url(#SVGID_6_);stroke-width:0.40493533"
       inkscape:connector-curvature="0"
       id="path1055"
       d="m 24.278604,28.84217 c 0,0 -1.40767,0.586265 -2.740129,-0.917323 -1.33246,-1.503588 -3.494238,0.76443 -4.524652,1.223091 -1.030413,0.458662 -2.187115,-0.790116 -2.161778,-1.809365 0.02534,-1.019239 -0.402191,-3.542076 1.131365,-5.401994 1.533555,-1.859917 3.569446,-3.516399 3.569446,-3.516399 0,0 -0.335427,4.587012 4.725748,10.42199 z"
       enable-background="new    " /><path
       style="display:inline;opacity:0.32000002;fill:url(#SVGID_5_);stroke-width:0.40493533"
       inkscape:connector-curvature="0"
       id="path1048"
       d="m 19.226277,16.492586 c 0,0 -13.1379781,15.220595 -13.0044504,31.868132 0.1319185,16.403329 8.0104424,25.277286 16.1548154,31.256586 7.396298,5.430541 2.279217,5.77627 -1.40767,2.718532 0,0 -20.51778546,-14.321217 -15.5515278,-40.497881 C 8.0992548,27.704286 19.226277,16.492586 19.226277,16.492586 Z"
       enable-background="new    " /><path
       style="display:inline;fill:#ffffff;fill-opacity:0.53333285;stroke-width:0.40493533"
       inkscape:connector-curvature="0"
       id="path1107"
       d="M 40.009908,64.782389 C 42.5771,62.990554 44.463373,61.747082 44.463373,61.747082 35.5287,59.52838 28.911444,51.239063 28.911444,41.497938 c 0,-1.701737 0.288773,-3.172709 0.4404,-4.794536 0.07038,-0.750165 -0.384496,-2.089456 -1.698454,-4.075353 -1.23513,2.958672 -1.918854,6.207611 -1.918854,9.6176 0,9.975157 5.844245,18.57432 14.275372,22.53674 z" /></g><g
     id="group_yellow"
     inkscape:label="group_yellow"
     style="display:inline"><path
       style="display:inline;fill:#591f00;stroke-width:0.40493533"
       inkscape:connector-curvature="0"
       id="path1001"
       d="m 91.218887,31.492204 0.804379,15.798307 H 97.3523 c 0,0 1.809866,-10.294378 -8.546567,-23.748418 z" /><path
       style="fill:#af8513;stroke-width:0.40493533"
       inkscape:connector-curvature="0"
       id="path1096"
       d="m 70.32183,35.263413 -0.653558,1.223091 c 0,0 3.753652,11.398428 -2.446935,19.21278 l 0.997038,0.144321 4.424102,-8.561656 0.402189,-8.833601 z" /><path
       style="display:inline;fill:url(#SVGID_12_);stroke-width:0.40493533"
       inkscape:connector-curvature="0"
       id="path1105"
       d="M 50.329312,62.732072 32.901158,76.560379 c 0,0 -4.122865,2.921572 -1.441058,5.877383 2.681015,2.955812 11.797476,12.910162 22.556094,13.827485 10.758618,0.917324 28.555581,-7.746259 36.599405,-20.384903 8.043829,-12.638643 13.071221,-34.857786 -1.608767,-52.592655 0,0 5.631077,9.308972 6.368296,17.259083 0.737219,7.950111 -0.737618,2.921562 -7.977062,0.543463 C 80.15862,38.712135 75.1984,37.556711 73.388544,36.945166 71.578677,36.33362 70.55631,35.518223 70.304941,35.288694 c 0,0 2.907443,9.092479 -0.15082,15.41629 -3.820823,7.899153 -9.6361,11.313617 -19.824809,12.027088 z" /><path
       d="m 97.637055,54.960126 c 0,0 -1.307127,-5.968699 -5.014924,-5.803174 l 0.03783,-0.567111 c 0,4.06e-4 3.871091,-0.305362 4.977115,6.370285 z"
       id="path1166"
       inkscape:connector-curvature="0"
       style="fill:url(#SVGID_17_);stroke-width:0.40493533" /><path
       d="m 92.622131,49.156952 h 0.464934 c -0.313308,4.571926 -2.747777,20.469298 -14.168801,27.810724 4.09e-4,0 12.14537,-8.546987 13.703867,-27.810724 z"
       id="path1173"
       inkscape:connector-curvature="0"
       style="fill:url(#SVGID_18_);stroke-width:0.40493533" /><path
       d="m 74.26049,89.98017 c 0,0 1.440649,-3.669283 -3.084002,-8.052037 0,0 12.568474,-7.338566 16.523625,-16.036398 3.954344,-8.69701 4.490872,-15.492529 4.356534,-17.802546 0,0 4.725749,-0.772991 5.630677,6.718052 0,0 -0.955207,-5.860664 -5.027389,-6.2174 0,0 -0.587604,10.226295 -4.876569,18.168259 -3.770543,6.98183 -9.95423,11.160733 -15.685459,15.288677 0,0 3.871899,4.450431 2.162583,7.933393 z"
       id="path1175"
       inkscape:connector-curvature="0"
       style="fill:#d1ab1a;stroke-width:0.40493533" /><path
       d="m 72.525436,81.727953 c 0,0 3.468902,4.293469 1.99849,7.631703 0,0 1.118493,-2.726679 -2.438484,-7.313285 z"
       id="path1182"
       inkscape:connector-curvature="0"
       style="fill:url(#SVGID_19_);stroke-width:0.40493533" /><path
       d="m 61.43984,94.277717 c 0,0 -2.262326,-4.076977 -2.664516,-5.962581 0,0 6.535607,-1.630794 8.898483,-2.802927 0,0 1.659036,1.936572 2.815334,5.911623 0,0 0.05027,-3.771209 -2.765064,-6.727021 l -9.95423,3.159663 c 0,0 2.312595,5.045268 3.669993,6.421243 z"
       id="path1189"
       inkscape:connector-curvature="0"
       style="fill:url(#SVGID_20_);stroke-width:0.40493533" /><path
       d="m 61.926087,94.872554 c 0,0 -3.116984,-2.445371 -4.591412,-7.372003 0,0 6.300729,-1.223903 10.42319,-3.193903 0,0 3.318074,3.159663 2.915884,8.119714 0,0 -0.2011,-4.450431 -2.949672,-7.47392 0,0 -6.535607,2.649223 -9.552041,3.023489 0,-4.06e-4 0.972497,3.6012 3.754051,6.896623 z"
       id="path1191"
       inkscape:connector-curvature="0"
       style="fill:#d1ab1a;stroke-width:0.40493533" /><path
       style="display:inline;fill:#af8513;stroke-width:0.40493533"
       inkscape:connector-curvature="0"
       id="path999"
       d="m 94.05996,44.52305 v 0 c 2.170225,1.485246 2.790403,1.799585 2.187115,-4.315889 -0.60328,-6.115475 -6.083138,-14.880984 -6.083138,-14.880984 l 0.01167,0.0591 c 1.691221,3.19799 4.677084,9.520574 5.20034,15.161886 0.398572,4.305703 0.145588,4.801059 -1.315976,3.975872 z" /><path
       style="display:inline;fill:#ffffff;fill-opacity:0.53333285;stroke-width:0.40493533"
       inkscape:connector-curvature="0"
       id="path1111"
       d="m 70.304941,35.2891 c 0,0 2.907443,9.092479 -0.15082,15.415884 -3.820823,7.899153 -9.6361,11.313617 -19.824809,12.027088 l -4.922017,3.905751 c 1.561705,0.310667 3.175703,0.477013 4.827904,0.477013 13.66123,0 24.73476,-11.13465 24.73476,-24.869187 0,-1.701728 -0.170938,-3.363099 -0.4943,-4.968613 C 74.041295,37.151868 73.672088,37.040974 73.388544,36.945572 71.578677,36.33362 70.55631,35.518223 70.304941,35.2891 Z" /><path
       style="display:inline;opacity:0.3;fill:url(#SVGID_13_);stroke-width:0.40493533"
       inkscape:connector-curvature="0"
       id="path1120"
       d="m 90.615599,75.880344 c 2.74656,-4.315077 5.140006,-9.747251 6.518717,-15.736331 -6.108886,11.882766 -18.109873,27.078495 -40.128632,29.666564 -6.907235,0.811319 -13.052719,0.472114 -18.481092,-0.617257 4.130503,3.313359 9.560091,6.56598 15.491602,7.071927 10.758618,0.917324 28.555581,-7.746259 36.599405,-20.384903 z"
       enable-background="new    " /></g><g
     id="group_red"
     inkscape:label="group_red"><path
       style="fill:#8f0404;stroke-width:0.40493533"
       inkscape:connector-curvature="0"
       id="path1003"
       d="m 31.216782,31.874627 1.156298,0.611545 c 0,0 6.426616,-8.926955 15.074127,-9.674269 8.647112,-0.747305 15.48396,4.416597 17.763175,6.930872 2.279224,2.514274 3.419031,3.601191 6.770485,3.601191 3.351463,0 14.534391,1.817115 18.589684,3.651762 L 93.015072,36.041304 80.895839,24.442697 39.805971,14.114071 Z" /><path
       style="fill:url(#SVGID_3_);stroke-width:0.40493533"
       inkscape:connector-curvature="0"
       id="path1014"
       d="m 31.216782,31.874627 c 0,0 3.544511,-7.262327 11.739155,-9.810445 8.194643,-2.548108 16.992575,-1.325016 23.880101,7.083756 l 0.703838,0.76444 c 0,0 1.156298,1.299736 4.449441,1.426942 3.293142,0.127198 13.80039,1.664629 18.090162,3.805043 l 2.027447,0.883489 c 0,0 1.424158,0.662504 1.156298,-1.138299 C 92.995363,33.08875 91.681809,24.956801 84.582731,17.37566 75.801688,7.9985962 61.557279,2.6985283 50.698121,2.8004447 39.838953,2.9023705 31.560649,5.5524139 24.589068,9.9013251 c 0,0 -0.335024,4.3827549 0.36881,7.2366399 0.703835,2.853895 4.055295,10.260544 5.664064,12.706736 3.99e-4,0 0.641084,0.934032 0.59484,2.029926 z" /><path
       style="display:inline;fill:#ffffff;fill-opacity:0.53333285;stroke-width:0.40493533"
       inkscape:connector-curvature="0"
       id="path1109"
       d="M 72.481195,31.366225 C 68.467732,23.084243 60.015681,17.376066 50.234791,17.376066 c -8.531676,0 -16.054666,4.344021 -20.501296,10.951991 0.328593,0.60625 0.63104,1.125253 0.888039,1.516644 0,0 0.628628,0.908751 0.594839,2.029926 0,0 3.544512,-7.262327 11.739165,-9.810445 8.194644,-2.548108 16.992575,-1.325016 23.880101,7.083756 l 0.703838,0.76444 c 0,0 1.156298,1.299736 4.44944,1.426942 0.148409,0.0057 0.316526,0.01548 0.492278,0.0269 z" /><path
       style="opacity:0.32000002;fill:url(#SVGID_8_);stroke-width:0.40493533"
       inkscape:connector-curvature="0"
       id="path1073"
       d="M 72.081416,13.502526 C 49.257064,-3.4169464 24.525121,13.390404 24.525121,13.390404 c 0,0 21.212769,-20.4766331 52.483135,-0.295572 z"
       enable-background="new    " /><path
       style="opacity:0.5;fill:#ffffff;stroke-width:0.40493533"
       inkscape:connector-curvature="0"
       id="path1066"
       d="m 30.119602,14.65794 c 0,0 2.446934,-1.732711 3.318073,-2.514275 0.871957,-0.781554 0.168118,-2.2084967 -0.770599,-2.072331 -0.938707,0.136175 -3.016434,0.662513 -4.273279,2.004654 -1.001455,1.069802 -0.913376,2.284746 -0.209541,2.828615 0.703835,0.543869 1.566936,0.02483 1.935346,-0.246663 z"
       enable-background="new    " /><path
       style="opacity:0.5;fill:#ffffff;stroke-width:0.40493533"
       inkscape:connector-curvature="0"
       id="path1064"
       d="m 26.97728,21.197827 c 0,0 1.608766,-2.446192 0.351918,-4.918061 -0.865515,-1.702955 -2.212052,-1.834646 -2.614244,-1.47791 0,4.15e-4 0.402192,4.153631 2.262326,6.395971"
       enable-background="new    " /></g><g
     id="group_blue"
     inkscape:label="group_blue"><ellipse
       style="fill:url(#SVGID_4_);stroke-width:0.40493533"
       id="ellipse1041"
       ry="17.429096"
       rx="18.601345"
       cy="42.984406"
       cx="49.793182" /><path
       style="display:inline;fill:url(#SVGID_14_);stroke-width:0.40493533"
       inkscape:connector-curvature="0"
       id="path1139"
       d="m 34.312043,33.322772 c 0.298421,-0.138214 1.753957,-0.898159 7.806533,-4.862618 7.105515,-4.654689 9.987611,-0.543463 12.736184,0.271934 2.748583,0.815397 4.256392,-0.815397 4.256392,-0.815397 0,0 -0.03821,-0.0269 -0.106579,-0.07175 -2.716399,-1.454253 -5.858721,-2.289626 -9.210982,-2.289626 -6.458791,0 -12.146576,3.085048 -15.481548,7.767463 z" /><path
       enable-background="new    "
       d="m 49.762622,26.022524 c 10.127579,0 18.358422,7.881623 18.590082,17.318613 0.0039,-0.135759 0.01089,-0.271122 0.01089,-0.407694 0,-9.625756 -8.328175,-17.429101 -18.601351,-17.429101 -10.273168,0 -18.601342,7.803345 -18.601342,17.429101 0,0.136572 0.0077,0.271935 0.01089,0.407694 0.232467,-9.43699 8.463709,-17.318613 18.590889,-17.318613 z"
       id="path1141"
       inkscape:connector-curvature="0"
       style="display:inline;opacity:0.15;fill:#ffffff;stroke-width:0.40493533" /><path
       style="opacity:0.6;fill:url(#SVGID_10_);stroke-width:0.40493533"
       inkscape:connector-curvature="0"
       id="path1087"
       d="m 42.319666,30.116229 c 0,0 -5.630678,4.73949 -4.57492,15.798297 0,0 -0.276709,1.503588 -1.508217,-0.458661 -1.231509,-1.96225 -1.407667,-12.74056 6.083137,-15.339636 z"
       enable-background="new    " /><path
       d="m 32.414102,38.168266 c 0,0 0.452469,8.052038 2.563965,9.682832 0,0 3.301193,8.219195 15.903446,7.471475 l -1.223466,2.313273 c 0,0 -9.55204,2.548118 -13.624222,-3.720241 -4.072192,-6.268359 -4.072192,-10.192451 -3.619723,-15.747339 z"
       id="path1159"
       inkscape:connector-curvature="0"
       style="display:inline;fill:url(#SVGID_16_);stroke-width:0.40493533" /><path
       style="display:inline;opacity:0.6;fill:url(#SVGID_15_);stroke-width:0.40493533"
       inkscape:connector-curvature="0"
       id="path1150"
       d="m 60.898897,33.072031 c 0,0 5.630678,7.134724 1.340906,13.046347 -4.290579,5.911623 -6.234774,7.678177 -6.502634,9.648988 0,0 12.065735,-3.737771 11.462456,-10.396303 -0.603289,-6.658928 -1.943796,-9.241294 -6.300728,-12.299032"
       enable-background="new    " /><path
       style="opacity:0.6;fill:url(#SVGID_11_);stroke-width:0.40493533"
       inkscape:connector-curvature="0"
       id="path1094"
       d="m 49.81048,28.740245 c 0,0 -5.479858,1.375984 -7.264784,3.771208 -1.784915,2.395224 -2.480305,-0.127612 -0.494289,-1.579836 1.986025,-1.452214 4.94374,-2.599076 7.759073,-2.191372 z"
       enable-background="new    " /></g></svg>