<?xml version="1.0" encoding="UTF-8" standalone="no"?>
<!-- Generator: Adobe Illustrator 14.0.0, SVG Export Plug-In . SVG Version: 6.00 Build 43363)  -->

<svg
   xmlns:dc="http://purl.org/dc/elements/1.1/"
   xmlns:cc="http://creativecommons.org/ns#"
   xmlns:rdf="http://www.w3.org/1999/02/22-rdf-syntax-ns#"
   xmlns:svg="http://www.w3.org/2000/svg"
   xmlns="http://www.w3.org/2000/svg"
   xmlns:sodipodi="http://sodipodi.sourceforge.net/DTD/sodipodi-0.dtd"
   xmlns:inkscape="http://www.inkscape.org/namespaces/inkscape"
   version="1.1"
   id="chrome_logo"
   x="0px"
   y="0px"
   width="100"
   height="100"
   viewBox="0 0 100 100"
   enable-background="new 0 0 256 256"
   xml:space="preserve"
   sodipodi:docname="logo.svg"
   inkscape:version="0.92.1 r15371"><metadata
     id="metadata1201"><rdf:RDF><cc:Work
         rdf:about=""><dc:format>image/svg+xml</dc:format><dc:type
           rdf:resource="http://purl.org/dc/dcmitype/StillImage" /><dc:title></dc:title></cc:Work></rdf:RDF></metadata><defs
     id="defs1199"><linearGradient
       gradientTransform="matrix(0.41363206,0,0,-0.4318745,-109.07501,-44.148566)"
       y2="-261.37109"
       x2="427.23499"
       y1="-144.0381"
       x1="324.56931"
       gradientUnits="userSpaceOnUse"
       id="SVGID_1_"><stop
         id="stop965"
         style="stop-color:#DED9D9"
         offset="0" /><stop
         id="stop967"
         style="stop-color:#6A6363"
         offset="1" /></linearGradient><radialGradient
       gradientUnits="userSpaceOnUse"
       gradientTransform="matrix(0.41363206,0,0,-0.4318745,-108.83466,-44.148566)"
       r="175.0517"
       cy="-188.47951"
       cx="351.82419"
       id="SVGID_2_"><stop
         id="stop982"
         style="stop-color:#8DDB92"
         offset="0.0765" /><stop
         id="stop984"
         style="stop-color:#77CE7C"
         offset="0.1633" /><stop
         id="stop986"
         style="stop-color:#3EAB45"
         offset="0.3431" /><stop
         id="stop988"
         style="stop-color:#078A0F"
         offset="0.5021" /><stop
         id="stop990"
         style="stop-color:#108C18"
         offset="0.581" /><stop
         id="stop992"
         style="stop-color:#28922F"
         offset="0.7085" /><stop
         id="stop994"
         style="stop-color:#299230"
         offset="0.7148" /></radialGradient><radialGradient
       gradientUnits="userSpaceOnUse"
       gradientTransform="matrix(0.41363206,0,0,-0.4318745,-109.07501,-44.148566)"
       r="116.2404"
       cy="-214.623"
       cx="386.72559"
       id="SVGID_3_"><stop
         id="stop1005"
         style="stop-color:#F60000"
         offset="0.6157" /><stop
         id="stop1007"
         style="stop-color:#E70505"
         offset="0.7247" /><stop
         id="stop1009"
         style="stop-color:#C41212"
         offset="0.9171" /><stop
         id="stop1011"
         style="stop-color:#DD7878"
         offset="1" /></radialGradient><radialGradient
       gradientUnits="userSpaceOnUse"
       gradientTransform="matrix(0.41363206,0,0,-0.4318745,-109.07501,-44.148566)"
       r="52.106899"
       cy="-189.31149"
       cx="383.82419"
       id="SVGID_4_"><stop
         id="stop1016"
         style="stop-color:#B1DDF4"
         offset="0" /><stop
         id="stop1018"
         style="stop-color:#A9D7F3"
         offset="0.0742" /><stop
         id="stop1020"
         style="stop-color:#93C7F1"
         offset="0.1904" /><stop
         id="stop1022"
         style="stop-color:#6EADEE"
         offset="0.3332" /><stop
         id="stop1024"
         style="stop-color:#5B9FEC"
         offset="0.4" /><stop
         id="stop1026"
         style="stop-color:#0B85D1"
         offset="0.5273" /><stop
         id="stop1028"
         style="stop-color:#1375B3"
         offset="0.6182" /><stop
         id="stop1030"
         style="stop-color:#166FA8"
         offset="0.6537" /><stop
         id="stop1032"
         style="stop-color:#1E608B"
         offset="0.716" /><stop
         id="stop1034"
         style="stop-color:#2B475C"
         offset="0.7971" /><stop
         id="stop1036"
         style="stop-color:#33383F"
         offset="0.8424" /><stop
         id="stop1038"
         style="stop-color:#363233"
         offset="1" /></radialGradient><linearGradient
       gradientTransform="matrix(0.41363206,0,0,-0.4318745,-108.83466,-44.148566)"
       y2="-301.85059"
       x2="311.81119"
       y1="-168.96831"
       x1="287.08109"
       gradientUnits="userSpaceOnUse"
       id="SVGID_5_"><stop
         id="stop1043"
         style="stop-color:#FFFFFF"
         offset="0" /><stop
         id="stop1045"
         style="stop-color:#FFFFFF;stop-opacity:0.53"
         offset="1" /></linearGradient><linearGradient
       gradientTransform="matrix(0.41363206,0,0,-0.4318745,-108.83466,-44.148566)"
       y2="-194.5968"
       x2="321.5654"
       y1="-153.9297"
       x1="303.5654"
       gradientUnits="userSpaceOnUse"
       id="SVGID_6_"><stop
         id="stop1050"
         style="stop-color:#FFFFFF"
         offset="0" /><stop
         id="stop1052"
         style="stop-color:#FFFFFF;stop-opacity:0.53"
         offset="0.517" /></linearGradient><linearGradient
       gradientTransform="matrix(0.41363206,0,0,-0.4318745,-108.83466,-44.148566)"
       y2="-263.64569"
       x2="329.18939"
       y1="-367.64551"
       x1="329.18951"
       gradientUnits="userSpaceOnUse"
       id="SVGID_7_"><stop
         id="stop1057"
         style="stop-color:#FFFFFF"
         offset="0" /><stop
         id="stop1059"
         style="stop-color:#FFFFFF;stop-opacity:0.53"
         offset="1" /></linearGradient><linearGradient
       gradientTransform="matrix(0.41363206,0,0,-0.4318745,-109.07501,-44.148566)"
       y2="-153.5437"
       x2="436.26791"
       y1="-116.2905"
       x1="365.08691"
       gradientUnits="userSpaceOnUse"
       id="SVGID_8_"><stop
         id="stop1068"
         style="stop-color:#FFFFFF;stop-opacity:0.7"
         offset="0" /><stop
         id="stop1070"
         style="stop-color:#FFFFFF;stop-opacity:0"
         offset="1" /></linearGradient><linearGradient
       gradientTransform="matrix(0.41363206,0,0,-0.4318745,-108.83466,-44.148566)"
       y2="-194.75211"
       x2="299.7944"
       y1="-183.9019"
       x1="279.0625"
       gradientUnits="userSpaceOnUse"
       id="SVGID_9_"><stop
         id="stop1075"
         style="stop-color:#FFFFFF;stop-opacity:0.7"
         offset="0" /><stop
         id="stop1077"
         style="stop-color:#FFFFFF;stop-opacity:0"
         offset="1" /></linearGradient><linearGradient
       gradientTransform="matrix(0.41363206,0,0,-0.4318745,-109.07501,-44.148566)"
       y2="-217.6514"
       x2="356.90781"
       y1="-164.50101"
       x1="357.2529"
       gradientUnits="userSpaceOnUse"
       id="SVGID_10_"><stop
         id="stop1082"
         style="stop-color:#FFFFFF;stop-opacity:0.7"
         offset="0" /><stop
         id="stop1084"
         style="stop-color:#FFFFFF;stop-opacity:0"
         offset="1" /></linearGradient><linearGradient
       gradientTransform="matrix(0.41363206,0,0,-0.4318745,-109.07501,-44.148566)"
       y2="-168.7585"
       x2="381.99631"
       y1="-174.2256"
       x1="360.1279"
       gradientUnits="userSpaceOnUse"
       id="SVGID_11_"><stop
         id="stop1089"
         style="stop-color:#FFFFFF;stop-opacity:0.7"
         offset="0" /><stop
         id="stop1091"
         style="stop-color:#FFFFFF;stop-opacity:0"
         offset="1" /></linearGradient><radialGradient
       gradientUnits="userSpaceOnUse"
       gradientTransform="matrix(0.41363206,0,0,-0.4318745,-109.07501,-44.148566)"
       r="125.9904"
       cy="-208.9785"
       cx="384.82709"
       id="SVGID_12_"><stop
         id="stop1098"
         style="stop-color:#FFE650"
         offset="0.182" /><stop
         id="stop1100"
         style="stop-color:#FFDB00"
         offset="0.703" /><stop
         id="stop1102"
         style="stop-color:#D5B319"
         offset="1" /></radialGradient><linearGradient
       gradientTransform="matrix(0.41363206,0,0,-0.4318745,-109.07501,-44.148566)"
       y2="-263.64551"
       x2="428.91989"
       y1="-367.64499"
       x1="428.91989"
       gradientUnits="userSpaceOnUse"
       id="SVGID_13_"><stop
         id="stop1115"
         style="stop-color:#FFFFFF"
         offset="0" /><stop
         id="stop1117"
         style="stop-color:#FFFFFF;stop-opacity:0.53"
         offset="1" /></linearGradient><linearGradient
       gradientTransform="matrix(0.41363206,0,0,-0.4318745,-109.07501,-44.148566)"
       y2="-167.1665"
       x2="410.49091"
       y1="-167.76759"
       x1="341.9707"
       gradientUnits="userSpaceOnUse"
       id="SVGID_14_"><stop
         id="stop1122"
         style="stop-color:#29506B"
         offset="0" /><stop
         id="stop1124"
         style="stop-color:#304D68"
         offset="0.0677" /><stop
         id="stop1126"
         style="stop-color:#424560"
         offset="0.1639" /><stop
         id="stop1128"
         style="stop-color:#613854"
         offset="0.2766" /><stop
         id="stop1130"
         style="stop-color:#673551"
         offset="0.297" /><stop
         id="stop1132"
         style="stop-color:#4D7EBE"
         offset="0.5515" /><stop
         id="stop1134"
         style="stop-color:#633753"
         offset="0.7455" /><stop
         id="stop1136"
         style="stop-color:#29506B"
         offset="1" /></linearGradient><linearGradient
       gradientTransform="matrix(0.41363206,0,0,-0.4318745,-109.07501,-44.148566)"
       y2="-172.39461"
       x2="402.32071"
       y1="-229.39549"
       x1="415.9873"
       gradientUnits="userSpaceOnUse"
       id="SVGID_15_"><stop
         id="stop1143"
         style="stop-color:#343539"
         offset="0" /><stop
         id="stop1145"
         style="stop-color:#29506B"
         offset="0.3212" /><stop
         id="stop1147"
         style="stop-color:#C7DD85"
         offset="1" /></linearGradient><linearGradient
       gradientTransform="matrix(0.41363206,0,0,-0.4318745,-109.07501,-44.148566)"
       y2="-212.6716"
       x2="363.61719"
       y1="-235.29491"
       x1="363.08499"
       gradientUnits="userSpaceOnUse"
       id="SVGID_16_"><stop
         id="stop1152"
         style="stop-color:#343539"
         offset="0" /><stop
         id="stop1154"
         style="stop-color:#29506B"
         offset="0.3212" /><stop
         id="stop1156"
         style="stop-color:#496D4E"
         offset="1" /></linearGradient><linearGradient
       gradientTransform="matrix(0.41363206,0,0,-0.4318745,-109.07501,-44.148566)"
       y2="-223.5401"
       x2="499.52979"
       y1="-215.0396"
       x1="492.69629"
       gradientUnits="userSpaceOnUse"
       id="SVGID_17_"><stop
         id="stop1161"
         style="stop-color:#F4DD80"
         offset="0" /><stop
         id="stop1163"
         style="stop-color:#F4DD80;stop-opacity:0.3"
         offset="1" /></linearGradient><linearGradient
       gradientTransform="matrix(0.41363206,0,0,-0.4318745,-109.07501,-44.148566)"
       y2="-274.9928"
       x2="467.19501"
       y1="-206.5625"
       x1="491.7793"
       gradientUnits="userSpaceOnUse"
       id="SVGID_18_"><stop
         id="stop1168"
         style="stop-color:#F4DD80"
         offset="0" /><stop
         id="stop1170"
         style="stop-color:#F4DD80;stop-opacity:0.3"
         offset="1" /></linearGradient><linearGradient
       gradientTransform="matrix(0.41363206,0,0,-0.4318745,-109.07501,-44.148566)"
       y2="-309.92001"
       x2="445.4176"
       y1="-293.00241"
       x1="440.0918"
       gradientUnits="userSpaceOnUse"
       id="SVGID_19_"><stop
         id="stop1177"
         style="stop-color:#F4DD80"
         offset="0" /><stop
         id="stop1179"
         style="stop-color:#F4DD80;stop-opacity:0.3"
         offset="1" /></linearGradient><linearGradient
       gradientTransform="matrix(0.41363206,0,0,-0.4318745,-109.07501,-44.148566)"
       y2="-323.94119"
       x2="426.1514"
       y1="-303.73389"
       x1="414.5322"
       gradientUnits="userSpaceOnUse"
       id="SVGID_20_"><stop
         id="stop1184"
         style="stop-color:#F4DD80"
         offset="0" /><stop
         id="stop1186"
         style="stop-color:#F4DD80;stop-opacity:0.3"
         offset="1" /></linearGradient></defs><sodipodi:namedview
     pagecolor="#ffffff"
     bordercolor="#666666"
     borderopacity="1"
     objecttolerance="10"
     gridtolerance="10"
     guidetolerance="10"
     inkscape:pageopacity="0"
     inkscape:pageshadow="2"
     inkscape:window-width="1274"
     inkscape:window-height="966"
     id="namedview1197"
     showgrid="false"
     inkscape:zoom="1.87"
     inkscape:cx="100.81178"
     inkscape:cy="38.758227"
     inkscape:window-x="0"
     inkscape:window-y="26"
     inkscape:window-maximized="1"
     inkscape:current-layer="group_green"
     showguides="false" /><g
     id="background"
     inkscape:label="background"
     style="display:inline"><ellipse
       cx="49.790718"
       cy="49.248619"
       id="circle963"
       style="display:inline;fill:#4e4a4a;stroke-width:0.42265487"
       rx="45.085896"
       ry="47.074322" /><path
       d="m 24.628657,14.505609 c 0,0 -3.378133,2.12352 -2.188941,6.76618 1.189192,4.64265 3.360761,7.23389 5.066993,9.44725 1.706229,2.21336 3.429839,5.41657 3.153949,7.61179 -0.2759,2.19522 -0.98238,10.97781 4.44654,16.69065 5.42892,5.7124 9.46183,5.87436 9.46183,5.87436 l -1.3443,1.0257 -16.792222,14.36242 4.745192,7.24988 11.51262,10.29243 -8.20357,-1.58325 -0.58611,2.26734 11.96099,0.17966 -4.96358,-8.42156 -8.47946,-8.13306 c 0,0 -1.48246,-1.6381 1.48205,-3.90544 2.9645,-2.26734 17.44162,-13.83855 17.44162,-13.83855 l 16.06257,-24.86777 c 0,0 1.2926,0.054 3.72269,0.21594 2.43009,0.16195 21.31942,8.9614 21.31942,8.9614 0,0 -0.3218,-6.6418 -0.63782,-9.82515 -0.1307,-1.3224 0.40495,-1.16606 1.17224,0.71994 0.76687,1.88556 0.31022,5.18249 0.31022,5.18249 l -0.51704,-7.48568 -2.86109,-4.03069 -0.72386,3.455 c 0,0 0.56875,3.50898 0.72386,4.8046 0.15511,1.29563 -0.41363,1.7275 -2.22327,0.86375 -1.80964,-0.86375 -7.80731,-2.91515 -11.78852,-3.45499 -3.98121,-0.53985 -10.08228,-0.80977 -10.08228,-0.80977 l -31.0224,0.43188 -1.65453,1.25978 c 0,0 0.38757,-1.48479 -1.26696,-4.36366 -1.65453,-2.87888 -7.246831,-16.94287 -7.246831,-16.94287 z"
       id="path970"
       inkscape:connector-curvature="0"
       style="display:inline;fill:url(#SVGID_1_);stroke-width:0.42265487" /></g><g
     id="group_green"
     inkscape:label="group_green"><path
       style="display:inline;fill:#005a2b;stroke-width:0.42265487"
       inkscape:connector-curvature="0"
       id="path974"
       d="m 38.173895,94.510359 c 0,0 4.75677,0.43187 6.72152,0.21593 1.96475,-0.21593 9.75468,2.37531 9.75468,2.37531 0,0 -1.1379,1.7871 -3.58495,2.20645 -2.44746,0.42108 -15.1319,-3.24985 -15.1319,-3.24985 z" /><path
       style="display:inline;fill:#00663f;stroke-width:0.42265487"
       inkscape:connector-curvature="0"
       id="path976"
       d="m 44.309715,62.443679 c 0,0 -15.196432,11.40407 -17.234811,15.47579 -2.038379,4.07214 3.515461,9.35785 7.066081,12.45267 3.55061,3.09481 8.75534,8.15076 18.5274,8.3667 0,0 -6.463,2.105391 -16.18335,-1.78148 -9.720355,-3.88687 -20.578197,-25.4806 -20.578197,-25.4806 z" /><path
       style="display:inline;fill:#007a3f;stroke-width:0.42265487"
       inkscape:connector-curvature="0"
       id="path972"
       d="m 27.99234,33.296469 c 0,0 1.887405,3.49559 1.693405,6.24879 -0.18075,2.56447 -0.33628,13.46887 9.5913,19.67706 2.57859,1.61262 4.79772,2.22675 4.79772,2.22675 l 0.23495,0.99461 -5.78217,0.47679 -14.554882,-15.0884 0.155112,-12.20046 2.119865,-2.37531 1.137488,-0.26992 z" /><polygon
       style="display:inline;fill:#262626"
       id="polygon978"
       points="53.076,39.979 61.576,36.854 65.258,38.479 54.201,46.979 "
       transform="matrix(0.41363206,0,0,0.4318745,-2.9448562,-5.2798612)" /><path
       style="fill:url(#SVGID_2_);stroke-width:0.42265487"
       inkscape:connector-curvature="0"
       id="path997"
       d="m 47.601395,98.846809 c -8.32435,-0.91773 -15.71802,-8.2596 -18.613443,-11.44468 -2.895424,-3.18507 -6.721521,-6.58608 -1.913048,-11.55264 4.808471,-4.96655 17.234811,-13.40581 17.234811,-13.40581 v 0 c -9.18884,-2.35027 -15.994329,-11.13114 -15.994329,-21.44991 0,-1.80265 0.296988,-3.36085 0.452927,-5.07885 0.09886,-1.09307 -0.814441,-3.36041 -3.658162,-6.97736 -2.84372,-3.61695 -5.491379,-8.22505 -6.023723,-12.55157 -0.594803,-4.83181 2.593886,-6.34337 2.593886,-6.34337 -2.705567,0.10796 -7.428004,4.96655 -7.428004,4.96655 -13.96008119,13.71202 -18.8893342,36.56552 -9.2376442,56.43175 9.6508622,19.86622 27.4374592,26.41603 35.9169092,28.00015 8.47946,1.583251 11.73681,-0.70266 11.73681,-0.70266 -1.55153,0.45908 -5.06699,0.1084 -5.06699,0.1084 z" /><path
       style="display:inline;fill:#007a3f;stroke-width:0.42265487"
       inkscape:connector-curvature="0"
       id="path980"
       d="m 24.127775,10.222709 c 0,0 -2.447461,-1.0615502 -4.13632,0.8279 -1.68886,1.88945 -2.498752,9.50124 4.877549,17.49092 0,0 -5.205146,-7.341 -5.066993,-13.17217 0.13774,-5.8303102 4.480876,-3.92272 4.480876,-3.92272 z" /><path
       style="opacity:0.6;fill:url(#SVGID_9_);stroke-width:0.42265487"
       inkscape:connector-curvature="0"
       id="path1080"
       d="m 19.785052,11.162029 c -0.007,-0.20902 -0.276306,-0.0933 -0.276306,-0.0933 -27.5582352,22.29552 -16.5196362,53.6332 -16.5196362,53.6332 -7.109094,-36.1967 16.6098082,-53.24883 16.6098082,-53.24883 0,0 0.192339,-0.0954 0.186134,-0.29108 z"
       enable-background="new    " /><path
       style="display:inline;opacity:0.3;fill:url(#SVGID_7_);stroke-width:0.42265487"
       inkscape:connector-curvature="0"
       id="path1062"
       d="m 1.9889478,63.589869 c 0.773078,2.64955 1.774067,5.27535 3.025304,7.85148 9.6508632,19.86623 27.4374532,26.41603 35.9169132,28.00015 8.47946,1.583251 11.73681,-0.70266 11.73681,-0.70266 -1.55112,0.45908 -5.06699,0.10797 -5.06699,0.10797 -6.77323,-0.80977 -13.77064,-6.2082 -16.66607,-9.39327 -0.003,-0.003 1.96476,1.78148 0,0 C 17.55268,88.473179 6.5388998,70.055899 1.9889478,63.589869 Z"
       enable-background="new    " /><path
       style="opacity:0.5;fill:url(#SVGID_6_);stroke-width:0.42265487"
       inkscape:connector-curvature="0"
       id="path1055"
       d="m 23.550345,27.587519 c 0,0 -1.447712,0.62103 -2.818075,-0.97172 -1.370363,-1.59275 -3.593636,0.80976 -4.653361,1.29562 -1.059725,0.48586 -2.249331,-0.83697 -2.223272,-1.91666 0.02606,-1.07968 -0.413632,-3.75212 1.163547,-5.72233 1.577179,-1.97021 3.670984,-3.72492 3.670984,-3.72492 0,0 -0.344969,4.85902 4.860177,11.04001 z"
       enable-background="new    " /><path
       style="display:inline;opacity:0.32000002;fill:url(#SVGID_5_);stroke-width:0.42265487"
       inkscape:connector-curvature="0"
       id="path1048"
       d="m 18.354299,14.505609 c 0,0 -13.5117042,16.12317 -13.3743782,33.7579 0.135671,17.37604 8.2383092,26.77622 16.6143582,33.11009 7.606696,5.75257 2.344053,6.1188 -1.447712,2.87974 0,0 -21.1014392,-15.17046 -15.9939102,-42.89939 2.758098,-14.97179 14.2016422,-26.84834 14.2016422,-26.84834 z"
       enable-background="new    " /><path
       style="display:inline;fill:#ffffff;fill-opacity:0.53333285;stroke-width:0.42265487"
       inkscape:connector-curvature="0"
       id="path1107"
       d="m 39.729145,65.658979 c 2.64022,-1.89809 4.58015,-3.2153 4.58015,-3.2153 -9.18883,-2.35027 -15.994322,-11.13114 -15.994322,-21.44991 0,-1.80265 0.296987,-3.36085 0.452927,-5.07885 0.07238,-0.79465 -0.395433,-2.21336 -1.746768,-4.31702 -1.270265,3.13412 -1.973439,6.57572 -1.973439,10.18792 0,10.56668 6.010492,19.67577 14.681452,23.87316 z" /></g><g
     id="group_yellow"
     inkscape:label="group_yellow"
     style="display:inline"><path
       style="display:inline;fill:#591f00;stroke-width:0.42265487"
       inkscape:connector-curvature="0"
       id="path1001"
       d="m 92.394828,30.394699 0.82726,16.73514 h 5.48063 c 0,0 1.861342,-10.90483 -8.78969,-25.15669 z" /><path
       style="fill:#af8513;stroke-width:0.42265487"
       inkscape:connector-curvature="0"
       id="path1096"
       d="m 70.903328,34.389539 -0.67215,1.29562 c 0,0 3.86043,12.07435 -2.51654,20.35209 l 1.0254,0.15288 4.54995,-9.06936 0.41363,-9.35743 z" /><path
       style="display:inline;fill:url(#SVGID_12_);stroke-width:0.42265487"
       inkscape:connector-curvature="0"
       id="path1105"
       d="m 50.342098,63.487079 -17.92392,14.64832 c 0,0 -4.240144,3.09482 -1.48205,6.22591 2.75728,3.13109 12.13307,13.67573 23.19773,14.64745 11.06466,0.97172 29.36788,-8.20561 37.64052,-21.59372 8.272642,-13.38811 13.443042,-36.92484 -1.65453,-55.71138 0,0 5.79126,9.86099 6.54945,18.28254 0.75819,8.42155 -0.7586,3.09481 -8.20398,0.57569 -7.44538,-2.51912 -12.5467,-3.74306 -14.40804,-4.39087 -1.86135,-0.64781 -2.9128,-1.51156 -3.17132,-1.7547 0,0 2.99015,9.63166 -0.15511,16.33047 -3.92951,8.36757 -9.91021,11.98451 -20.38875,12.74029 z" /><path
       d="m 98.995568,55.254259 c 0,0 -1.34431,-6.32264 -5.15758,-6.1473 l 0.0389,-0.60074 c 0,4.3e-4 3.98121,-0.32347 5.1187,6.74804 z"
       id="path1166"
       inkscape:connector-curvature="0"
       style="fill:url(#SVGID_17_);stroke-width:0.42265487" /><path
       d="m 93.837988,49.106959 h 0.47816 c -0.32222,4.84304 -2.82594,21.68312 -14.57185,29.45989 4.2e-4,0 12.49086,-9.05382 14.09369,-29.45989 z"
       id="path1173"
       inkscape:connector-curvature="0"
       style="fill:url(#SVGID_18_);stroke-width:0.42265487" /><path
       d="m 74.954028,92.350979 c 0,0 1.48163,-3.88687 -3.17173,-8.52952 0,0 12.926,-7.77374 16.99366,-16.98735 4.06683,-9.21274 4.61862,-16.41123 4.48046,-18.85823 0,0 4.86018,-0.81883 5.79085,7.11643 0,0 -0.98238,-6.2082 -5.1704,-6.58609 0,0 -0.60432,10.83271 -5.01529,19.24563 -3.8778,7.39585 -10.23739,11.82256 -16.13165,16.19529 0,0 3.98204,4.71434 2.2241,8.40384 z"
       id="path1175"
       inkscape:connector-curvature="0"
       style="fill:#d1ab1a;stroke-width:0.42265487" /><path
       d="m 73.169618,83.609409 c 0,0 3.56758,4.54807 2.05534,8.08426 0,0 1.15031,-2.88837 -2.50785,-7.74696 z"
       id="path1182"
       inkscape:connector-curvature="0"
       style="fill:url(#SVGID_19_);stroke-width:0.42265487" /><path
       d="m 61.768678,96.903369 c 0,0 -2.32668,-4.31874 -2.74031,-6.31616 0,0 6.72152,-1.7275 9.15161,-2.96914 0,0 1.70623,2.05141 2.89542,6.26218 0,0 0.0517,-3.99484 -2.84372,-7.12593 l -10.23739,3.34703 c 0,0 2.37838,5.34445 3.77439,6.80202 z"
       id="path1189"
       inkscape:connector-curvature="0"
       style="fill:url(#SVGID_20_);stroke-width:0.42265487" /><path
       d="m 62.268758,97.533479 c 0,0 -3.20565,-2.59038 -4.72202,-7.80916 0,0 6.47996,-1.29648 10.71969,-3.3833 0,0 3.41246,3.34703 2.99883,8.60121 0,0 -0.20682,-4.71434 -3.03358,-7.91712 0,0 -6.72152,2.80632 -9.82376,3.20278 0,-4.3e-4 1.00016,3.81475 3.86084,7.30559 z"
       id="path1191"
       inkscape:connector-curvature="0"
       style="fill:#d1ab1a;stroke-width:0.42265487" /><path
       style="display:inline;fill:#af8513;stroke-width:0.42265487"
       inkscape:connector-curvature="0"
       id="path999"
       d="m 95.316718,44.198269 v 0 c 2.23196,1.57332 2.86978,1.9063 2.24933,-4.57182 -0.62044,-6.47812 -6.25618,-15.76342 -6.25618,-15.76342 l 0.012,0.0626 c 1.73933,3.38763 4.81013,10.08514 5.34827,16.06098 0.40991,4.56103 0.14973,5.08576 -1.35341,4.21164 z" /><path
       style="display:inline;fill:#ffffff;fill-opacity:0.53333285;stroke-width:0.42265487"
       inkscape:connector-curvature="0"
       id="path1111"
       d="m 70.885958,34.416749 c 0,0 2.99015,9.63166 -0.15511,16.33004 -3.92951,8.36757 -9.91021,11.98451 -20.38875,12.74029 l -5.06203,4.13736 c 1.60613,0.32909 3.26604,0.5053 4.96524,0.5053 14.04984,0 25.43837,-11.79493 25.43837,-26.34392 0,-1.80264 -0.1758,-3.56253 -0.50836,-5.26325 -0.44672,-0.13259 -0.82643,-0.25006 -1.11804,-0.35112 -1.86135,-0.64824 -2.9128,-1.51199 -3.17132,-1.7547 z" /><path
       style="display:inline;opacity:0.3;fill:url(#SVGID_13_);stroke-width:0.42265487"
       inkscape:connector-curvature="0"
       id="path1120"
       d="m 91.774378,77.415039 c 2.82469,-4.57096 5.28622,-10.32526 6.70415,-16.66949 -6.28266,12.58741 -18.62503,28.68424 -41.27014,31.42578 -7.10372,0.85943 -13.42402,0.50011 -19.00681,-0.65386 4.248,3.50984 9.83204,6.95534 15.93228,7.49129 11.06466,0.97172 29.36788,-8.20561 37.64052,-21.59372 z"
       enable-background="new    " /></g><g
     id="group_red"
     inkscape:label="group_red"><path
       style="fill:#8f0404;stroke-width:0.42265487"
       inkscape:connector-curvature="0"
       id="path1003"
       d="m 30.685888,30.799799 1.18919,0.64781 c 0,0 6.60943,-9.45632 15.50293,-10.24795 8.89309,-0.79162 15.92442,4.6785 18.26847,7.34187 2.34406,2.66337 3.51629,3.81474 6.96308,3.81474 3.4468,0 14.94784,1.92487 19.11849,3.86831 l 2.51406,-1.01102 -12.46398,-12.2864 -42.25872,-10.94111 z" /><path
       style="fill:url(#SVGID_3_);stroke-width:0.42265487"
       inkscape:connector-curvature="0"
       id="path1014"
       d="m 30.685888,30.799799 c 0,0 3.64534,-7.69298 12.07309,-10.3922 8.42775,-2.69921 17.47595,-1.40359 24.5594,7.50382 l 0.72386,0.80977 c 0,0 1.18919,1.37681 4.57601,1.51156 3.38682,0.13474 14.19296,1.76334 18.60476,4.03068 l 2.08512,0.93588 c 0,0 1.46467,0.70179 1.18919,-1.2058 -0.27548,-1.90759 -1.6264,-10.52176 -8.92742,-18.55246 -9.03083,-9.9331202 -23.68044,-15.5474802 -34.8485,-15.4395202 -11.16807,0.10797 -19.68186,2.91516 -26.851756,7.52196 0,0 -0.344555,4.6426502 0.379301,7.6657702 0.723856,3.02313 4.170652,10.86899 5.825185,13.46024 4.1e-4,0 0.65932,0.98942 0.61176,2.1503 z" /><path
       style="display:inline;fill:#ffffff;fill-opacity:0.53333285;stroke-width:0.42265487"
       inkscape:connector-curvature="0"
       id="path1109"
       d="m 73.124118,30.261249 c -4.12763,-8.7731 -12.82011,-14.81977 -22.87923,-14.81977 -8.77437,0 -16.51136,4.60162 -21.08448,11.60144 0.33794,0.6422 0.64899,1.19198 0.9133,1.60658 0,0 0.64651,0.96264 0.61176,2.1503 0,0 3.64534,-7.69298 12.0731,-10.3922 8.42775,-2.69921 17.47595,-1.40359 24.5594,7.50382 l 0.72386,0.80977 c 0,0 1.18919,1.37681 4.57601,1.51156 0.15263,0.006 0.32553,0.0164 0.50628,0.0285 z" /><path
       style="opacity:0.32000002;fill:url(#SVGID_8_);stroke-width:0.42265487"
       inkscape:connector-curvature="0"
       id="path1073"
       d="m 72.712968,11.338239 c -23.47362,-17.9227902 -48.909093,-0.11877 -48.909093,-0.11877 0,0 21.816193,-21.69089 53.976083,-0.3131 z"
       enable-background="new    " /><path
       style="opacity:0.5;fill:#ffffff;stroke-width:0.42265487"
       inkscape:connector-curvature="0"
       id="path1066"
       d="m 29.557498,12.562169 c 0,0 2.51654,-1.83546 3.41246,-2.6633702 0.89676,-0.8279 0.1729,-2.33946 -0.79252,-2.19522 -0.96541,0.14425 -3.10224,0.7018 -4.394837,2.12353 -1.029943,1.1332402 -0.939358,2.4202302 -0.215502,2.9963502 0.723856,0.57612 1.611509,0.0263 1.990399,-0.26129 z"
       enable-background="new    " /><path
       style="opacity:0.5;fill:#ffffff;stroke-width:0.42265487"
       inkscape:connector-curvature="0"
       id="path1064"
       d="m 26.325789,19.489869 c 0,0 1.654529,-2.59125 0.361928,-5.2097 -0.890136,-1.80394 -2.274976,-1.94344 -2.688608,-1.56555 0,4.4e-4 0.413632,4.39994 2.32668,6.77525"
       enable-background="new    " /></g><g
     id="group_blue"
     inkscape:label="group_blue"><ellipse
       style="fill:url(#SVGID_4_);stroke-width:0.42265487"
       id="ellipse1041"
       ry="18.462635"
       rx="19.130484"
       cy="42.568382"
       cx="49.790718" /><path
       style="display:inline;fill:url(#SVGID_14_);stroke-width:0.42265487"
       inkscape:connector-curvature="0"
       id="path1139"
       d="m 33.869198,32.333819 c 0.30691,-0.14641 1.80385,-0.95142 8.0286,-5.15097 7.30764,-4.93071 10.27172,-0.57569 13.09848,0.28806 2.82677,0.86375 4.37747,-0.86375 4.37747,-0.86375 0,0 -0.0393,-0.0285 -0.10961,-0.076 -2.79367,-1.54049 -6.02538,-2.4254 -9.473,-2.4254 -6.64252,0 -12.4921,3.26799 -15.92194,8.22807 z" /><path
       enable-background="new    "
       d="m 49.759288,24.600669 c 10.41567,0 18.88065,8.349 19.1189,18.3456 0.004,-0.14381 0.0112,-0.2872 0.0112,-0.43187 0,-10.19656 -8.56508,-18.46264 -19.13049,-18.46264 -10.5654,0 -19.13048,8.26608 -19.13048,18.46264 0,0.14467 0.008,0.28806 0.0112,0.43187 0.23908,-9.9966 8.70447,-18.3456 19.11973,-18.3456 z"
       id="path1141"
       inkscape:connector-curvature="0"
       style="display:inline;opacity:0.15;fill:#ffffff;stroke-width:0.42265487" /><path
       style="opacity:0.6;fill:url(#SVGID_10_);stroke-width:0.42265487"
       inkscape:connector-curvature="0"
       id="path1087"
       d="m 42.104608,28.937129 c 0,0 -5.79085,5.02054 -4.70506,16.73513 0,0 -0.28458,1.59275 -1.55112,-0.48586 -1.26654,-2.07861 -1.44771,-13.49607 6.25618,-16.24927 z"
       enable-background="new    " /><path
       d="m 31.917268,37.466649 c 0,0 0.46534,8.52952 2.6369,10.25702 0,0 3.3951,8.70659 16.35584,7.91453 l -1.25827,2.45045 c 0,0 -9.82376,2.69922 -14.01178,-3.94085 -4.18803,-6.64007 -4.18803,-10.79686 -3.72269,-16.68115 z"
       id="path1159"
       inkscape:connector-curvature="0"
       style="display:inline;fill:url(#SVGID_16_);stroke-width:0.42265487" /><path
       style="display:inline;opacity:0.6;fill:url(#SVGID_15_);stroke-width:0.42265487"
       inkscape:connector-curvature="0"
       id="path1150"
       d="m 61.212348,32.068209 c 0,0 5.79085,7.55781 1.37905,13.81999 -4.41263,6.26218 -6.41213,8.13349 -6.68761,10.22117 0,0 12.40896,-3.95942 11.78852,-11.0128 -0.62045,-7.0538 -1.99909,-9.7893 -6.47996,-13.02836"
       enable-background="new    " /><path
       style="opacity:0.6;fill:url(#SVGID_11_);stroke-width:0.42265487"
       inkscape:connector-curvature="0"
       id="path1094"
       d="m 49.808508,27.479549 c 0,0 -5.63574,1.45758 -7.47144,3.99484 -1.83569,2.53726 -2.55086,-0.13518 -0.50835,-1.67352 2.04252,-1.53833 5.08437,-2.7532 7.97979,-2.32132 z"
       enable-background="new    " /></g></svg>