<?xml version="1.0" encoding="UTF-8" standalone="no"?>
<!-- Generator: Adobe Illustrator 14.0.0, SVG Export Plug-In . SVG Version: 6.00 Build 43363)  -->

<svg
   xmlns:dc="http://purl.org/dc/elements/1.1/"
   xmlns:cc="http://creativecommons.org/ns#"
   xmlns:rdf="http://www.w3.org/1999/02/22-rdf-syntax-ns#"
   xmlns:svg="http://www.w3.org/2000/svg"
   xmlns="http://www.w3.org/2000/svg"
   xmlns:sodipodi="http://sodipodi.sourceforge.net/DTD/sodipodi-0.dtd"
   xmlns:inkscape="http://www.inkscape.org/namespaces/inkscape"
   version="1.1"
   id="Layer_1"
   x="0px"
   y="0px"
   width="241.76076"
   height="231.54875"
   viewBox="0 0 241.76076 231.54875"
   enable-background="new 0 0 256 256"
   xml:space="preserve"
   sodipodi:docname="logo.svg"
   inkscape:version="0.92.1 r15371"><metadata
     id="metadata1201"><rdf:RDF><cc:Work
         rdf:about=""><dc:format>image/svg+xml</dc:format><dc:type
           rdf:resource="http://purl.org/dc/dcmitype/StillImage" /></cc:Work></rdf:RDF></metadata><defs
     id="defs1199"><linearGradient
       gradientTransform="matrix(1,0,0,-1,-263.12,-102.225)"
       y2="-261.37109"
       x2="427.23499"
       y1="-144.0381"
       x1="324.56931"
       gradientUnits="userSpaceOnUse"
       id="SVGID_1_"><stop
         id="stop965"
         style="stop-color:#DED9D9"
         offset="0" /><stop
         id="stop967"
         style="stop-color:#6A6363"
         offset="1" /></linearGradient><radialGradient
       gradientUnits="userSpaceOnUse"
       gradientTransform="matrix(1,0,0,-1,-263.12,-102.225)"
       r="175.0517"
       cy="-188.47951"
       cx="351.82419"
       id="SVGID_2_"><stop
         id="stop982"
         style="stop-color:#8DDB92"
         offset="0.0765" /><stop
         id="stop984"
         style="stop-color:#77CE7C"
         offset="0.1633" /><stop
         id="stop986"
         style="stop-color:#3EAB45"
         offset="0.3431" /><stop
         id="stop988"
         style="stop-color:#078A0F"
         offset="0.5021" /><stop
         id="stop990"
         style="stop-color:#108C18"
         offset="0.581" /><stop
         id="stop992"
         style="stop-color:#28922F"
         offset="0.7085" /><stop
         id="stop994"
         style="stop-color:#299230"
         offset="0.7148" /></radialGradient><radialGradient
       gradientUnits="userSpaceOnUse"
       gradientTransform="matrix(1,0,0,-1,-263.12,-102.225)"
       r="116.2404"
       cy="-214.623"
       cx="386.72559"
       id="SVGID_3_"><stop
         id="stop1005"
         style="stop-color:#F60000"
         offset="0.6157" /><stop
         id="stop1007"
         style="stop-color:#E70505"
         offset="0.7247" /><stop
         id="stop1009"
         style="stop-color:#C41212"
         offset="0.9171" /><stop
         id="stop1011"
         style="stop-color:#DD7878"
         offset="1" /></radialGradient><radialGradient
       gradientUnits="userSpaceOnUse"
       gradientTransform="matrix(1,0,0,-1,-263.12,-102.225)"
       r="52.106899"
       cy="-189.31149"
       cx="383.82419"
       id="SVGID_4_"><stop
         id="stop1016"
         style="stop-color:#B1DDF4"
         offset="0" /><stop
         id="stop1018"
         style="stop-color:#A9D7F3"
         offset="0.0742" /><stop
         id="stop1020"
         style="stop-color:#93C7F1"
         offset="0.1904" /><stop
         id="stop1022"
         style="stop-color:#6EADEE"
         offset="0.3332" /><stop
         id="stop1024"
         style="stop-color:#5B9FEC"
         offset="0.4" /><stop
         id="stop1026"
         style="stop-color:#0B85D1"
         offset="0.5273" /><stop
         id="stop1028"
         style="stop-color:#1375B3"
         offset="0.6182" /><stop
         id="stop1030"
         style="stop-color:#166FA8"
         offset="0.6537" /><stop
         id="stop1032"
         style="stop-color:#1E608B"
         offset="0.716" /><stop
         id="stop1034"
         style="stop-color:#2B475C"
         offset="0.7971" /><stop
         id="stop1036"
         style="stop-color:#33383F"
         offset="0.8424" /><stop
         id="stop1038"
         style="stop-color:#363233"
         offset="1" /></radialGradient><linearGradient
       gradientTransform="matrix(1,0,0,-1,-263.12,-102.225)"
       y2="-301.85059"
       x2="311.81119"
       y1="-168.96831"
       x1="287.08109"
       gradientUnits="userSpaceOnUse"
       id="SVGID_5_"><stop
         id="stop1043"
         style="stop-color:#FFFFFF"
         offset="0" /><stop
         id="stop1045"
         style="stop-color:#FFFFFF;stop-opacity:0.53"
         offset="1" /></linearGradient><linearGradient
       gradientTransform="matrix(1,0,0,-1,-263.12,-102.225)"
       y2="-194.5968"
       x2="321.5654"
       y1="-153.9297"
       x1="303.5654"
       gradientUnits="userSpaceOnUse"
       id="SVGID_6_"><stop
         id="stop1050"
         style="stop-color:#FFFFFF"
         offset="0" /><stop
         id="stop1052"
         style="stop-color:#FFFFFF;stop-opacity:0.53"
         offset="0.517" /></linearGradient><linearGradient
       gradientTransform="matrix(1,0,0,-1,-263.12,-102.225)"
       y2="-263.64569"
       x2="329.18939"
       y1="-367.64551"
       x1="329.18951"
       gradientUnits="userSpaceOnUse"
       id="SVGID_7_"><stop
         id="stop1057"
         style="stop-color:#FFFFFF"
         offset="0" /><stop
         id="stop1059"
         style="stop-color:#FFFFFF;stop-opacity:0.53"
         offset="1" /></linearGradient><linearGradient
       gradientTransform="matrix(1,0,0,-1,-263.12,-102.225)"
       y2="-153.5437"
       x2="436.26791"
       y1="-116.2905"
       x1="365.08691"
       gradientUnits="userSpaceOnUse"
       id="SVGID_8_"><stop
         id="stop1068"
         style="stop-color:#FFFFFF;stop-opacity:0.7"
         offset="0" /><stop
         id="stop1070"
         style="stop-color:#FFFFFF;stop-opacity:0"
         offset="1" /></linearGradient><linearGradient
       gradientTransform="matrix(1,0,0,-1,-263.12,-102.225)"
       y2="-194.75211"
       x2="299.7944"
       y1="-183.9019"
       x1="279.0625"
       gradientUnits="userSpaceOnUse"
       id="SVGID_9_"><stop
         id="stop1075"
         style="stop-color:#FFFFFF;stop-opacity:0.7"
         offset="0" /><stop
         id="stop1077"
         style="stop-color:#FFFFFF;stop-opacity:0"
         offset="1" /></linearGradient><linearGradient
       gradientTransform="matrix(1,0,0,-1,-263.12,-102.225)"
       y2="-217.6514"
       x2="356.90781"
       y1="-164.50101"
       x1="357.2529"
       gradientUnits="userSpaceOnUse"
       id="SVGID_10_"><stop
         id="stop1082"
         style="stop-color:#FFFFFF;stop-opacity:0.7"
         offset="0" /><stop
         id="stop1084"
         style="stop-color:#FFFFFF;stop-opacity:0"
         offset="1" /></linearGradient><linearGradient
       gradientTransform="matrix(1,0,0,-1,-263.12,-102.225)"
       y2="-168.7585"
       x2="381.99631"
       y1="-174.2256"
       x1="360.1279"
       gradientUnits="userSpaceOnUse"
       id="SVGID_11_"><stop
         id="stop1089"
         style="stop-color:#FFFFFF;stop-opacity:0.7"
         offset="0" /><stop
         id="stop1091"
         style="stop-color:#FFFFFF;stop-opacity:0"
         offset="1" /></linearGradient><radialGradient
       gradientUnits="userSpaceOnUse"
       gradientTransform="matrix(1,0,0,-1,-263.12,-102.225)"
       r="125.9904"
       cy="-208.9785"
       cx="384.82709"
       id="SVGID_12_"><stop
         id="stop1098"
         style="stop-color:#FFE650"
         offset="0.182" /><stop
         id="stop1100"
         style="stop-color:#FFDB00"
         offset="0.703" /><stop
         id="stop1102"
         style="stop-color:#D5B319"
         offset="1" /></radialGradient><linearGradient
       gradientTransform="matrix(1,0,0,-1,-263.12,-102.225)"
       y2="-263.64551"
       x2="428.91989"
       y1="-367.64499"
       x1="428.91989"
       gradientUnits="userSpaceOnUse"
       id="SVGID_13_"><stop
         id="stop1115"
         style="stop-color:#FFFFFF"
         offset="0" /><stop
         id="stop1117"
         style="stop-color:#FFFFFF;stop-opacity:0.53"
         offset="1" /></linearGradient><linearGradient
       gradientTransform="matrix(1,0,0,-1,-263.12,-102.225)"
       y2="-167.1665"
       x2="410.49091"
       y1="-167.76759"
       x1="341.9707"
       gradientUnits="userSpaceOnUse"
       id="SVGID_14_"><stop
         id="stop1122"
         style="stop-color:#29506B"
         offset="0" /><stop
         id="stop1124"
         style="stop-color:#304D68"
         offset="0.0677" /><stop
         id="stop1126"
         style="stop-color:#424560"
         offset="0.1639" /><stop
         id="stop1128"
         style="stop-color:#613854"
         offset="0.2766" /><stop
         id="stop1130"
         style="stop-color:#673551"
         offset="0.297" /><stop
         id="stop1132"
         style="stop-color:#4D7EBE"
         offset="0.5515" /><stop
         id="stop1134"
         style="stop-color:#633753"
         offset="0.7455" /><stop
         id="stop1136"
         style="stop-color:#29506B"
         offset="1" /></linearGradient><linearGradient
       gradientTransform="matrix(1,0,0,-1,-263.12,-102.225)"
       y2="-172.39461"
       x2="402.32071"
       y1="-229.39549"
       x1="415.9873"
       gradientUnits="userSpaceOnUse"
       id="SVGID_15_"><stop
         id="stop1143"
         style="stop-color:#343539"
         offset="0" /><stop
         id="stop1145"
         style="stop-color:#29506B"
         offset="0.3212" /><stop
         id="stop1147"
         style="stop-color:#C7DD85"
         offset="1" /></linearGradient><linearGradient
       gradientTransform="matrix(1,0,0,-1,-263.12,-102.225)"
       y2="-212.6716"
       x2="363.61719"
       y1="-235.29491"
       x1="363.08499"
       gradientUnits="userSpaceOnUse"
       id="SVGID_16_"><stop
         id="stop1152"
         style="stop-color:#343539"
         offset="0" /><stop
         id="stop1154"
         style="stop-color:#29506B"
         offset="0.3212" /><stop
         id="stop1156"
         style="stop-color:#496D4E"
         offset="1" /></linearGradient><linearGradient
       gradientTransform="matrix(1,0,0,-1,-263.12,-102.225)"
       y2="-223.5401"
       x2="499.52979"
       y1="-215.0396"
       x1="492.69629"
       gradientUnits="userSpaceOnUse"
       id="SVGID_17_"><stop
         id="stop1161"
         style="stop-color:#F4DD80"
         offset="0" /><stop
         id="stop1163"
         style="stop-color:#F4DD80;stop-opacity:0.3"
         offset="1" /></linearGradient><linearGradient
       gradientTransform="matrix(1,0,0,-1,-263.12,-102.225)"
       y2="-274.9928"
       x2="467.19501"
       y1="-206.5625"
       x1="491.7793"
       gradientUnits="userSpaceOnUse"
       id="SVGID_18_"><stop
         id="stop1168"
         style="stop-color:#F4DD80"
         offset="0" /><stop
         id="stop1170"
         style="stop-color:#F4DD80;stop-opacity:0.3"
         offset="1" /></linearGradient><linearGradient
       gradientTransform="matrix(1,0,0,-1,-263.12,-102.225)"
       y2="-309.92001"
       x2="445.4176"
       y1="-293.00241"
       x1="440.0918"
       gradientUnits="userSpaceOnUse"
       id="SVGID_19_"><stop
         id="stop1177"
         style="stop-color:#F4DD80"
         offset="0" /><stop
         id="stop1179"
         style="stop-color:#F4DD80;stop-opacity:0.3"
         offset="1" /></linearGradient><linearGradient
       gradientTransform="matrix(1,0,0,-1,-263.12,-102.225)"
       y2="-323.94119"
       x2="426.1514"
       y1="-303.73389"
       x1="414.5322"
       gradientUnits="userSpaceOnUse"
       id="SVGID_20_"><stop
         id="stop1184"
         style="stop-color:#F4DD80"
         offset="0" /><stop
         id="stop1186"
         style="stop-color:#F4DD80;stop-opacity:0.3"
         offset="1" /></linearGradient></defs><sodipodi:namedview
     pagecolor="#ffffff"
     bordercolor="#666666"
     borderopacity="1"
     objecttolerance="10"
     gridtolerance="10"
     guidetolerance="10"
     inkscape:pageopacity="0"
     inkscape:pageshadow="2"
     inkscape:window-width="1274"
     inkscape:window-height="966"
     id="namedview1197"
     showgrid="false"
     inkscape:zoom="2.9367876"
     inkscape:cx="127.35003"
     inkscape:cy="109.98574"
     inkscape:window-x="0"
     inkscape:window-y="26"
     inkscape:window-maximized="1"
     inkscape:current-layer="group_blue"
     showguides="false" /><g
     id="background"
     inkscape:label="background"><circle
       cx="120.95499"
       cy="114.035"
       r="109"
       id="circle963"
       style="display:inline;fill:#4e4a4a" /><path
       d="m 60.123,33.588 c 0,0 -8.167,4.917 -5.292,15.667 2.875,10.75 8.125,16.75 12.25,21.875 4.125,5.125 8.292,12.542 7.625,17.625 -0.667,5.083 -2.375,25.419 10.75,38.647 13.125,13.227 22.875,13.602 22.875,13.602 l -3.25,2.375 -40.597,33.256 11.472,16.787 27.833,23.832 -19.833,-3.666 -1.417,5.25 28.917,0.416 -12,-19.5 -20.5,-18.832 c 0,0 -3.584,-3.793 3.583,-9.043 7.167,-5.25 42.167,-32.043 42.167,-32.043 l 38.833,-57.581 c 0,0 3.125,0.125 9,0.5 5.875,0.375 51.542,20.75 51.542,20.75 0,0 -0.778,-15.379 -1.542,-22.75 -0.316,-3.062 0.979,-2.7 2.834,1.667 1.854,4.366 0.75,12 0.75,12 l -1.25,-17.333 -6.917,-9.333 -1.75,8 c 0,0 1.375,8.125 1.75,11.125 0.375,3 -1,4 -5.375,2 -4.375,-2 -18.875,-6.75 -28.5,-8 -9.625,-1.25 -24.375,-1.875 -24.375,-1.875 l -75,1 -4,2.917 c 0,0 0.937,-3.438 -3.063,-10.104 -4,-6.666 -17.52,-39.231 -17.52,-39.231 z"
       id="path970"
       inkscape:connector-curvature="0"
       style="display:inline;fill:url(#SVGID_1_)" /></g><g
     id="group_green"
     inkscape:label="group_green"><path
       style="display:inline;fill:#005a2b"
       inkscape:connector-curvature="0"
       id="path974"
       d="m 92.289,218.838 c 0,0 11.5,1 16.25,0.5 4.75,-0.5 23.583,5.5 23.583,5.5 0,0 -2.751,4.138 -8.667,5.109 -5.917,0.975 -36.583,-7.525 -36.583,-7.525 z" /><path
       style="display:inline;fill:#00663f"
       inkscape:connector-curvature="0"
       id="path976"
       d="m 107.123,144.588 c 0,0 -36.739,26.406 -41.667,35.834 -4.928,9.429 8.499,21.668 17.083,28.834 8.584,7.166 21.167,18.873 44.792,19.373 0,0 -15.625,4.875 -39.125,-4.125 -23.5,-9 -49.75,-59 -49.75,-59 z" /><path
       style="display:inline;fill:#007a3f"
       inkscape:connector-curvature="0"
       id="path972"
       d="m 67.674,77.098 c 0,0 4.563,8.094 4.094,14.469 -0.437,5.938 -0.813,31.187 23.188,45.562 6.234,3.734 11.599,5.156 11.599,5.156 l 0.568,2.303 -13.979,1.104 -35.188,-34.937 0.375,-28.25 5.125,-5.5 2.75,-0.625 z" /><polygon
       style="display:inline;fill:#262626"
       id="polygon978"
       points="54.201,46.979 53.076,39.979 61.576,36.854 65.258,38.479 "
       transform="translate(-7.12,-12.225)" /><path
       style="fill:url(#SVGID_2_)"
       inkscape:connector-curvature="0"
       id="path997"
       d="m 115.081,228.879 c -20.125,-2.125 -38,-19.125 -45,-26.5 -7,-7.375 -16.25,-15.25 -4.625,-26.75 11.625,-11.5 41.667,-31.041 41.667,-31.041 v 0 C 84.908,139.146 68.455,118.814 68.455,94.921 c 0,-4.174 0.718,-7.782 1.095,-11.76 C 69.789,80.63 67.581,75.38 60.706,67.005 53.831,58.63 47.43,47.96 46.143,37.942 44.705,26.754 52.414,23.254 52.414,23.254 c -6.541,0.25 -17.958,11.5 -17.958,11.5 -33.75,31.75 -45.667,84.667 -22.333,130.667 23.332,46 66.333,61.166 86.833,64.834 20.5,3.666 28.375,-1.627 28.375,-1.627 -3.751,1.063 -12.25,0.251 -12.25,0.251 z" /><path
       style="display:inline;fill:#007a3f"
       inkscape:connector-curvature="0"
       id="path980"
       d="m 58.331,23.671 c 0,0 -5.917,-2.458 -10,1.917 -4.083,4.375 -6.041,22 11.792,40.5 0,0 -12.584,-16.998 -12.25,-30.5 0.333,-13.5 10.833,-9.083 10.833,-9.083 z" /><path
       style="opacity:0.6;fill:url(#SVGID_9_)"
       inkscape:connector-curvature="0"
       id="path1080"
       d="M 47.832,25.846 C 47.815,25.362 47.164,25.63 47.164,25.63 -19.461,77.255 7.226,149.817 7.226,149.817 -9.961,66.004 47.382,26.52 47.382,26.52 c 0,0 0.465,-0.221 0.45,-0.674 z"
       enable-background="new    " /><path
       style="display:inline;opacity:0.3;fill:url(#SVGID_7_)"
       inkscape:connector-curvature="0"
       id="path1062"
       d="m 4.808,147.242 c 1.869,6.135 4.289,12.215 7.314,18.18 23.332,46 66.333,61.166 86.833,64.834 20.5,3.666 28.375,-1.627 28.375,-1.627 -3.75,1.063 -12.25,0.25 -12.25,0.25 -16.375,-1.875 -33.292,-14.375 -40.292,-21.75 -0.007,-0.008 4.75,4.125 0,0 -32.353,-2.27 -58.98,-44.915 -69.98,-59.887 z"
       enable-background="new    " /><path
       style="opacity:0.5;fill:url(#SVGID_6_)"
       inkscape:connector-curvature="0"
       id="path1055"
       d="m 56.935,63.879 c 0,0 -3.5,1.438 -6.813,-2.25 -3.313,-3.688 -8.688,1.875 -11.25,3 -2.562,1.125 -5.438,-1.938 -5.375,-4.438 0.063,-2.5 -1,-8.688 2.813,-13.25 3.813,-4.562 8.875,-8.625 8.875,-8.625 0,0 -0.834,11.251 11.75,25.563 z"
       enable-background="new    " /><path
       style="display:inline;opacity:0.32000002;fill:url(#SVGID_5_)"
       inkscape:connector-curvature="0"
       id="path1048"
       d="m 44.373,33.588 c 0,0 -32.666,37.333 -32.334,78.166 0.328,40.234 19.917,62 40.167,76.666 18.39,13.32 5.667,14.168 -3.5,6.668 0,0 -51.015,-35.127 -38.667,-99.333 6.668,-34.667 34.334,-62.167 34.334,-62.167 z"
       enable-background="new    " /><path
       style="display:inline;fill:#ffffff;fill-opacity:0.53333285"
       inkscape:connector-curvature="0"
       id="path1107"
       d="m 96.049,152.033 c 6.383,-4.395 11.073,-7.445 11.073,-7.445 -22.215,-5.442 -38.668,-25.774 -38.668,-49.667 0,-4.174 0.718,-7.782 1.095,-11.76 0.175,-1.84 -0.956,-5.125 -4.223,-9.996 -3.071,7.257 -4.771,15.226 -4.771,23.59 0,24.467 14.531,45.559 35.494,55.278 z" /></g><g
     id="group_yellow"
     inkscape:label="group_yellow"><path
       style="display:inline;fill:#591f00"
       inkscape:connector-curvature="0"
       id="path1001"
       d="m 223.955,70.379 2,38.75 h 13.25 c 0,0 4.5,-25.25 -21.25,-58.25 z" /><path
       style="fill:#af8513"
       inkscape:connector-curvature="0"
       id="path1096"
       d="m 171.997,79.629 -1.625,3 c 0,0 9.333,27.958 -6.084,47.125 l 2.479,0.354 11,-21 1,-21.667 z" /><path
       style="display:inline;fill:url(#SVGID_12_)"
       inkscape:connector-curvature="0"
       id="path1105"
       d="m 122.288,147.004 -43.333,33.918 c 0,0 -10.251,7.166 -3.583,14.416 6.666,7.25 29.333,31.666 56.083,33.916 26.75,2.25 71,-19 91,-50 20,-31 32.5,-85.499 -4,-128.999 0,0 14.001,22.833 15.834,42.333 1.833,19.5 -1.834,7.166 -19.834,1.333 -18,-5.833 -30.333,-8.667 -34.833,-10.167 -4.5,-1.5 -7.042,-3.5 -7.667,-4.063 0,0 7.229,22.302 -0.375,37.813 -9.5,19.375 -23.959,27.75 -49.292,29.5 z" /><path
       d="m 239.913,127.941 c 0,0 -3.25,-14.64 -12.469,-14.234 l 0.094,-1.391 c 0,10e-4 9.625,-0.749 12.375,15.625 z"
       id="path1166"
       inkscape:connector-curvature="0"
       style="fill:url(#SVGID_17_)" /><path
       d="m 227.444,113.707 h 1.156 c -0.779,11.214 -6.832,50.207 -35.229,68.214 0.001,0 30.198,-20.964 34.073,-68.214 z"
       id="path1173"
       inkscape:connector-curvature="0"
       style="fill:url(#SVGID_18_)" /><path
       d="m 181.79,213.838 c 0,0 3.582,-9 -7.668,-19.75 0,0 31.25,-18 41.084,-39.334 9.832,-21.332 11.166,-38 10.832,-43.666 0,0 11.75,-1.896 14,16.478 0,0 -2.375,-14.375 -12.5,-15.25 0,0 -1.461,25.083 -12.125,44.563 -9.375,17.125 -24.75,27.375 -39,37.5 0,0 9.627,10.916 5.377,19.459 z"
       id="path1175"
       inkscape:connector-curvature="0"
       style="fill:#d1ab1a" /><path
       d="m 177.476,193.597 c 0,0 8.625,10.531 4.969,18.719 0,0 2.781,-6.688 -6.063,-17.938 z"
       id="path1182"
       inkscape:connector-curvature="0"
       style="fill:url(#SVGID_19_)" /><path
       d="m 149.913,224.379 c 0,0 -5.625,-10 -6.625,-14.625 0,0 16.25,-4 22.125,-6.875 0,0 4.125,4.75 7,14.5 0,0 0.125,-9.25 -6.875,-16.5 l -24.75,7.75 c 0,0 5.75,12.375 9.125,15.75 z"
       id="path1189"
       inkscape:connector-curvature="0"
       style="fill:url(#SVGID_20_)" /><path
       d="m 151.122,225.838 c 0,0 -7.75,-5.998 -11.416,-18.082 0,0 15.666,-3.002 25.916,-7.834 0,0 8.25,7.75 7.25,19.916 0,0 -0.5,-10.916 -7.334,-18.332 0,0 -16.25,6.498 -23.75,7.416 0,-0.001 2.418,8.833 9.334,16.916 z"
       id="path1191"
       inkscape:connector-curvature="0"
       style="fill:#d1ab1a" /><path
       style="display:inline;fill:#af8513"
       inkscape:connector-curvature="0"
       id="path999"
       d="m 231.019,102.341 v 0 c 5.396,3.643 6.938,4.414 5.438,-10.586 -1.5,-15 -15.125,-36.5 -15.125,-36.5 l 0.029,0.145 c 4.205,7.844 11.629,23.352 12.93,37.189 0.991,10.561 0.362,11.776 -3.272,9.752 z" /><path
       style="display:inline;fill:#ffffff;fill-opacity:0.53333285"
       inkscape:connector-curvature="0"
       id="path1111"
       d="m 171.955,79.692 c 0,0 7.229,22.302 -0.375,37.812 -9.5,19.375 -23.959,27.75 -49.292,29.5 l -12.238,9.58 c 3.883,0.762 7.896,1.17 12.004,1.17 33.967,0 61.5,-27.311 61.5,-60.999 0,-4.174 -0.425,-8.249 -1.229,-12.187 -1.08,-0.307 -1.998,-0.579 -2.703,-0.813 -4.5,-1.501 -7.042,-3.501 -7.667,-4.063 z" /><path
       style="display:inline;opacity:0.3;fill:url(#SVGID_13_)"
       inkscape:connector-curvature="0"
       id="path1120"
       d="m 222.455,179.254 c 6.829,-10.584 12.78,-23.908 16.208,-38.598 -15.189,29.146 -45.028,66.418 -99.775,72.766 -17.174,1.99 -32.454,1.158 -45.951,-1.514 10.27,8.127 23.77,16.105 38.518,17.346 26.75,2.25 71,-19 91,-50 z"
       enable-background="new    " /></g><g
     id="group_red"
     inkscape:label="group_red"><path
       style="fill:#8f0404"
       inkscape:connector-curvature="0"
       id="path1003"
       d="m 74.767,71.317 2.875,1.5 c 0,0 15.979,-21.896 37.48,-23.729 21.5,-1.833 38.499,10.833 44.166,17 5.667,6.167 8.501,8.833 16.834,8.833 8.333,0 36.138,4.457 46.221,8.957 L 228.421,81.537 198.288,53.088 96.123,27.754 Z" /><path
       style="fill:url(#SVGID_3_)"
       inkscape:connector-curvature="0"
       id="path1014"
       d="m 74.767,71.317 c 0,0 8.813,-17.813 29.188,-24.063 20.375,-6.25 42.25,-3.25 59.375,17.375 l 1.75,1.875 c 0,0 2.875,3.188 11.063,3.5 8.188,0.312 34.313,4.083 44.979,9.333 l 5.041,2.167 c 0,0 3.541,1.625 2.875,-2.792 -0.666,-4.417 -3.932,-24.363 -21.583,-42.958 -21.833,-23 -57.25,-36 -84.25,-35.75 -27,0.25 -47.583,6.75 -64.917,17.417 0,0 -0.833,10.75 0.917,17.75 1.75,7 10.083,25.167 14.083,31.167 0.001,0 1.594,2.291 1.479,4.979 z" /><path
       style="display:inline;fill:#ffffff;fill-opacity:0.53333285"
       inkscape:connector-curvature="0"
       id="path1109"
       d="m 177.366,70.07 c -9.979,-20.314 -30.994,-34.315 -55.313,-34.315 -21.213,0 -39.918,10.655 -50.974,26.863 0.817,1.487 1.569,2.76 2.208,3.72 0,0 1.563,2.229 1.479,4.979 0,0 8.813,-17.813 29.188,-24.063 20.375,-6.25 42.25,-3.25 59.375,17.375 l 1.75,1.875 c 0,0 2.875,3.188 11.063,3.5 0.369,0.015 0.787,0.038 1.224,0.066 z" /><path
       style="opacity:0.32000002;fill:url(#SVGID_8_)"
       inkscape:connector-curvature="0"
       id="path1073"
       d="m 176.372,26.254 c -56.75,-41.5 -118.243,-0.275 -118.243,-0.275 0,0 52.743,-50.225 130.493,-0.725 z"
       enable-background="new    " /><path
       style="opacity:0.5;fill:#ffffff"
       inkscape:connector-curvature="0"
       id="path1066"
       d="m 72.039,29.088 c 0,0 6.084,-4.25 8.25,-6.167 2.168,-1.917 0.418,-5.417 -1.916,-5.083 -2.334,0.334 -7.5,1.625 -10.625,4.917 -2.49,2.624 -2.271,5.604 -0.521,6.938 1.75,1.334 3.896,0.061 4.812,-0.605 z"
       enable-background="new    " /><path
       style="opacity:0.5;fill:#ffffff"
       inkscape:connector-curvature="0"
       id="path1064"
       d="m 64.226,45.129 c 0,0 4,-6 0.875,-12.063 -2.152,-4.177 -5.5,-4.5 -6.5,-3.625 0,0.001 1,10.188 5.625,15.688"
       enable-background="new    " /></g><g
     id="group_blue"
     inkscape:label="group_blue"><ellipse
       style="fill:url(#SVGID_4_)"
       id="ellipse1041"
       ry="42.75"
       rx="46.25"
       cy="98.567001"
       cx="120.95499" /><path
       style="display:inline;fill:url(#SVGID_14_)"
       inkscape:connector-curvature="0"
       id="path1139"
       d="m 82.463,74.869 c 0.742,-0.339 4.361,-2.203 19.41,-11.927 17.667,-11.417 24.833,-1.333 31.667,0.667 6.834,2 10.583,-2 10.583,-2 0,0 -0.095,-0.066 -0.265,-0.176 -6.754,-3.567 -14.567,-5.616 -22.902,-5.616 -16.059,0 -30.201,7.567 -38.493,19.052 z" /><path
       enable-background="new    "
       d="m 120.879,56.963 c 25.181,0 45.646,19.332 46.222,42.479 0.01,-0.333 0.027,-0.665 0.027,-1 0,-23.61 -20.707,-42.75 -46.25,-42.75 -25.543,0 -46.25,19.14 -46.25,42.75 0,0.335 0.02,0.667 0.027,1 0.578,-23.147 21.044,-42.479 46.224,-42.479 z"
       id="path1141"
       inkscape:connector-curvature="0"
       style="display:inline;opacity:0.15;fill:#ffffff" /><path
       style="opacity:0.6;fill:url(#SVGID_10_)"
       inkscape:connector-curvature="0"
       id="path1087"
       d="m 102.373,67.004 c 0,0 -14,11.625 -11.375,38.75 0,0 -0.688,3.688 -3.75,-1.125 -3.062,-4.813 -3.5,-31.25 15.125,-37.625 z"
       enable-background="new    " /><path
       d="m 77.744,86.754 c 0,0 1.125,19.75 6.375,23.75 0,0 8.208,20.16 39.542,18.326 l -3.042,5.674 c 0,0 -23.75,6.25 -33.875,-9.125 -10.125,-15.375 -10.125,-25 -9,-38.625 z"
       id="path1159"
       inkscape:connector-curvature="0"
       style="display:inline;fill:url(#SVGID_16_)" /><path
       style="display:inline;opacity:0.6;fill:url(#SVGID_15_)"
       inkscape:connector-curvature="0"
       id="path1150"
       d="m 148.568,74.254 c 0,0 14,17.5 3.334,32 -10.668,14.5 -15.502,18.833 -16.168,23.667 0,0 30,-9.168 28.5,-25.5 -1.5,-16.333 -4.833,-22.667 -15.666,-30.167"
       enable-background="new    " /><path
       style="opacity:0.6;fill:url(#SVGID_11_)"
       inkscape:connector-curvature="0"
       id="path1094"
       d="m 120.998,63.629 c 0,0 -13.625,3.375 -18.063,9.25 -4.438,5.875 -6.167,-0.313 -1.229,-3.875 4.938,-3.562 12.292,-6.375 19.292,-5.375 z"
       enable-background="new    " /></g></svg>